G75*
G70*
%OFA0B0*%
%FSLAX24Y24*%
%IPPOS*%
%LPD*%
%AMOC8*
5,1,8,0,0,1.08239X$1,22.5*
%
%ADD10C,0.0081*%
%ADD11C,0.0820*%
%ADD12C,0.0085*%
%ADD13C,0.0083*%
%ADD14C,0.0080*%
%ADD15C,0.0087*%
%ADD16C,0.0080*%
%ADD17C,0.0087*%
%ADD18C,0.0434*%
%ADD19R,0.0680X0.0680*%
%ADD20OC8,0.0680*%
%ADD21C,0.0560*%
%ADD22C,0.0680*%
%ADD23C,0.0082*%
%ADD24OC8,0.0560*%
%ADD25C,0.0081*%
%ADD26C,0.0082*%
%ADD27C,0.0740*%
%ADD28C,0.0620*%
%ADD29C,0.0940*%
%ADD30C,0.0085*%
%ADD31C,0.0476*%
%ADD32C,0.1580*%
D10*
X015952Y014621D02*
X015952Y015015D01*
X015952Y014621D02*
X015874Y014621D01*
X015874Y015015D01*
X015952Y015015D01*
X015952Y014701D02*
X015874Y014701D01*
X015874Y014781D02*
X015952Y014781D01*
X015952Y014861D02*
X015874Y014861D01*
X015874Y014941D02*
X015952Y014941D01*
X016149Y015015D02*
X016149Y014621D01*
X016071Y014621D01*
X016071Y015015D01*
X016149Y015015D01*
X016149Y014701D02*
X016071Y014701D01*
X016071Y014781D02*
X016149Y014781D01*
X016149Y014861D02*
X016071Y014861D01*
X016071Y014941D02*
X016149Y014941D01*
X016346Y015015D02*
X016346Y014621D01*
X016268Y014621D01*
X016268Y015015D01*
X016346Y015015D01*
X016346Y014701D02*
X016268Y014701D01*
X016268Y014781D02*
X016346Y014781D01*
X016346Y014861D02*
X016268Y014861D01*
X016268Y014941D02*
X016346Y014941D01*
X016542Y015015D02*
X016542Y014621D01*
X016464Y014621D01*
X016464Y015015D01*
X016542Y015015D01*
X016542Y014701D02*
X016464Y014701D01*
X016464Y014781D02*
X016542Y014781D01*
X016542Y014861D02*
X016464Y014861D01*
X016464Y014941D02*
X016542Y014941D01*
X016739Y015015D02*
X016739Y014621D01*
X016661Y014621D01*
X016661Y015015D01*
X016739Y015015D01*
X016739Y014701D02*
X016661Y014701D01*
X016661Y014781D02*
X016739Y014781D01*
X016739Y014861D02*
X016661Y014861D01*
X016661Y014941D02*
X016739Y014941D01*
X016936Y015015D02*
X016936Y014621D01*
X016858Y014621D01*
X016858Y015015D01*
X016936Y015015D01*
X016936Y014701D02*
X016858Y014701D01*
X016858Y014781D02*
X016936Y014781D01*
X016936Y014861D02*
X016858Y014861D01*
X016858Y014941D02*
X016936Y014941D01*
X017133Y015015D02*
X017133Y014621D01*
X017055Y014621D01*
X017055Y015015D01*
X017133Y015015D01*
X017133Y014701D02*
X017055Y014701D01*
X017055Y014781D02*
X017133Y014781D01*
X017133Y014861D02*
X017055Y014861D01*
X017055Y014941D02*
X017133Y014941D01*
X017330Y015015D02*
X017330Y014621D01*
X017252Y014621D01*
X017252Y015015D01*
X017330Y015015D01*
X017330Y014701D02*
X017252Y014701D01*
X017252Y014781D02*
X017330Y014781D01*
X017330Y014861D02*
X017252Y014861D01*
X017252Y014941D02*
X017330Y014941D01*
X017527Y015015D02*
X017527Y014621D01*
X017449Y014621D01*
X017449Y015015D01*
X017527Y015015D01*
X017527Y014701D02*
X017449Y014701D01*
X017449Y014781D02*
X017527Y014781D01*
X017527Y014861D02*
X017449Y014861D01*
X017449Y014941D02*
X017527Y014941D01*
X017724Y015015D02*
X017724Y014621D01*
X017646Y014621D01*
X017646Y015015D01*
X017724Y015015D01*
X017724Y014701D02*
X017646Y014701D01*
X017646Y014781D02*
X017724Y014781D01*
X017724Y014861D02*
X017646Y014861D01*
X017646Y014941D02*
X017724Y014941D01*
X017920Y015015D02*
X017920Y014621D01*
X017842Y014621D01*
X017842Y015015D01*
X017920Y015015D01*
X017920Y014701D02*
X017842Y014701D01*
X017842Y014781D02*
X017920Y014781D01*
X017920Y014861D02*
X017842Y014861D01*
X017842Y014941D02*
X017920Y014941D01*
X018117Y015015D02*
X018117Y014621D01*
X018039Y014621D01*
X018039Y015015D01*
X018117Y015015D01*
X018117Y014701D02*
X018039Y014701D01*
X018039Y014781D02*
X018117Y014781D01*
X018117Y014861D02*
X018039Y014861D01*
X018039Y014941D02*
X018117Y014941D01*
X018866Y015370D02*
X018866Y015448D01*
X018866Y015370D02*
X018472Y015370D01*
X018472Y015448D01*
X018866Y015448D01*
X018866Y015567D02*
X018866Y015645D01*
X018866Y015567D02*
X018472Y015567D01*
X018472Y015645D01*
X018866Y015645D01*
X018866Y015764D02*
X018866Y015842D01*
X018866Y015764D02*
X018472Y015764D01*
X018472Y015842D01*
X018866Y015842D01*
X018866Y015961D02*
X018866Y016039D01*
X018866Y015961D02*
X018472Y015961D01*
X018472Y016039D01*
X018866Y016039D01*
X018866Y016157D02*
X018866Y016235D01*
X018866Y016157D02*
X018472Y016157D01*
X018472Y016235D01*
X018866Y016235D01*
X018866Y016354D02*
X018866Y016432D01*
X018866Y016354D02*
X018472Y016354D01*
X018472Y016432D01*
X018866Y016432D01*
X018866Y016551D02*
X018866Y016629D01*
X018866Y016551D02*
X018472Y016551D01*
X018472Y016629D01*
X018866Y016629D01*
X018866Y016748D02*
X018866Y016826D01*
X018866Y016748D02*
X018472Y016748D01*
X018472Y016826D01*
X018866Y016826D01*
X018866Y016945D02*
X018866Y017023D01*
X018866Y016945D02*
X018472Y016945D01*
X018472Y017023D01*
X018866Y017023D01*
X018866Y017142D02*
X018866Y017220D01*
X018866Y017142D02*
X018472Y017142D01*
X018472Y017220D01*
X018866Y017220D01*
X018866Y017338D02*
X018866Y017416D01*
X018866Y017338D02*
X018472Y017338D01*
X018472Y017416D01*
X018866Y017416D01*
X018866Y017535D02*
X018866Y017613D01*
X018866Y017535D02*
X018472Y017535D01*
X018472Y017613D01*
X018866Y017613D01*
X018117Y017968D02*
X018117Y018362D01*
X018117Y017968D02*
X018039Y017968D01*
X018039Y018362D01*
X018117Y018362D01*
X018117Y018048D02*
X018039Y018048D01*
X018039Y018128D02*
X018117Y018128D01*
X018117Y018208D02*
X018039Y018208D01*
X018039Y018288D02*
X018117Y018288D01*
X017920Y018362D02*
X017920Y017968D01*
X017842Y017968D01*
X017842Y018362D01*
X017920Y018362D01*
X017920Y018048D02*
X017842Y018048D01*
X017842Y018128D02*
X017920Y018128D01*
X017920Y018208D02*
X017842Y018208D01*
X017842Y018288D02*
X017920Y018288D01*
X017724Y018362D02*
X017724Y017968D01*
X017646Y017968D01*
X017646Y018362D01*
X017724Y018362D01*
X017724Y018048D02*
X017646Y018048D01*
X017646Y018128D02*
X017724Y018128D01*
X017724Y018208D02*
X017646Y018208D01*
X017646Y018288D02*
X017724Y018288D01*
X017527Y018362D02*
X017527Y017968D01*
X017449Y017968D01*
X017449Y018362D01*
X017527Y018362D01*
X017527Y018048D02*
X017449Y018048D01*
X017449Y018128D02*
X017527Y018128D01*
X017527Y018208D02*
X017449Y018208D01*
X017449Y018288D02*
X017527Y018288D01*
X017330Y018362D02*
X017330Y017968D01*
X017252Y017968D01*
X017252Y018362D01*
X017330Y018362D01*
X017330Y018048D02*
X017252Y018048D01*
X017252Y018128D02*
X017330Y018128D01*
X017330Y018208D02*
X017252Y018208D01*
X017252Y018288D02*
X017330Y018288D01*
X017133Y018362D02*
X017133Y017968D01*
X017055Y017968D01*
X017055Y018362D01*
X017133Y018362D01*
X017133Y018048D02*
X017055Y018048D01*
X017055Y018128D02*
X017133Y018128D01*
X017133Y018208D02*
X017055Y018208D01*
X017055Y018288D02*
X017133Y018288D01*
X016936Y018362D02*
X016936Y017968D01*
X016858Y017968D01*
X016858Y018362D01*
X016936Y018362D01*
X016936Y018048D02*
X016858Y018048D01*
X016858Y018128D02*
X016936Y018128D01*
X016936Y018208D02*
X016858Y018208D01*
X016858Y018288D02*
X016936Y018288D01*
X016739Y018362D02*
X016739Y017968D01*
X016661Y017968D01*
X016661Y018362D01*
X016739Y018362D01*
X016739Y018048D02*
X016661Y018048D01*
X016661Y018128D02*
X016739Y018128D01*
X016739Y018208D02*
X016661Y018208D01*
X016661Y018288D02*
X016739Y018288D01*
X016542Y018362D02*
X016542Y017968D01*
X016464Y017968D01*
X016464Y018362D01*
X016542Y018362D01*
X016542Y018048D02*
X016464Y018048D01*
X016464Y018128D02*
X016542Y018128D01*
X016542Y018208D02*
X016464Y018208D01*
X016464Y018288D02*
X016542Y018288D01*
X016346Y018362D02*
X016346Y017968D01*
X016268Y017968D01*
X016268Y018362D01*
X016346Y018362D01*
X016346Y018048D02*
X016268Y018048D01*
X016268Y018128D02*
X016346Y018128D01*
X016346Y018208D02*
X016268Y018208D01*
X016268Y018288D02*
X016346Y018288D01*
X016149Y018362D02*
X016149Y017968D01*
X016071Y017968D01*
X016071Y018362D01*
X016149Y018362D01*
X016149Y018048D02*
X016071Y018048D01*
X016071Y018128D02*
X016149Y018128D01*
X016149Y018208D02*
X016071Y018208D01*
X016071Y018288D02*
X016149Y018288D01*
X015952Y018362D02*
X015952Y017968D01*
X015874Y017968D01*
X015874Y018362D01*
X015952Y018362D01*
X015952Y018048D02*
X015874Y018048D01*
X015874Y018128D02*
X015952Y018128D01*
X015952Y018208D02*
X015874Y018208D01*
X015874Y018288D02*
X015952Y018288D01*
X015519Y017613D02*
X015519Y017535D01*
X015125Y017535D01*
X015125Y017613D01*
X015519Y017613D01*
X015519Y017416D02*
X015519Y017338D01*
X015125Y017338D01*
X015125Y017416D01*
X015519Y017416D01*
X015519Y017220D02*
X015519Y017142D01*
X015125Y017142D01*
X015125Y017220D01*
X015519Y017220D01*
X015519Y017023D02*
X015519Y016945D01*
X015125Y016945D01*
X015125Y017023D01*
X015519Y017023D01*
X015519Y016826D02*
X015519Y016748D01*
X015125Y016748D01*
X015125Y016826D01*
X015519Y016826D01*
X015519Y016629D02*
X015519Y016551D01*
X015125Y016551D01*
X015125Y016629D01*
X015519Y016629D01*
X015519Y016432D02*
X015519Y016354D01*
X015125Y016354D01*
X015125Y016432D01*
X015519Y016432D01*
X015519Y016235D02*
X015519Y016157D01*
X015125Y016157D01*
X015125Y016235D01*
X015519Y016235D01*
X015519Y016039D02*
X015519Y015961D01*
X015125Y015961D01*
X015125Y016039D01*
X015519Y016039D01*
X015519Y015842D02*
X015519Y015764D01*
X015125Y015764D01*
X015125Y015842D01*
X015519Y015842D01*
X015519Y015645D02*
X015519Y015567D01*
X015125Y015567D01*
X015125Y015645D01*
X015519Y015645D01*
X015519Y015448D02*
X015519Y015370D01*
X015125Y015370D01*
X015125Y015448D01*
X015519Y015448D01*
D11*
X015996Y006992D03*
X014996Y006992D03*
X016996Y006992D03*
X017996Y006992D03*
X018996Y006992D03*
X019996Y006992D03*
X021996Y006992D03*
X022996Y006992D03*
X023996Y006992D03*
X024996Y006992D03*
X025996Y006992D03*
X026996Y006992D03*
X026996Y025992D03*
X025996Y025992D03*
X024996Y025992D03*
X023996Y025992D03*
X022996Y025992D03*
X021996Y025992D03*
X020996Y025992D03*
X019996Y025992D03*
X018496Y025992D03*
X017496Y025992D03*
X016496Y025992D03*
X015496Y025992D03*
X014496Y025992D03*
X013496Y025992D03*
X012496Y025992D03*
X011496Y025992D03*
D12*
X008236Y017724D02*
X008236Y016960D01*
X007256Y016960D01*
X007256Y017724D01*
X008236Y017724D01*
X008236Y017044D02*
X007256Y017044D01*
X007256Y017128D02*
X008236Y017128D01*
X008236Y017212D02*
X007256Y017212D01*
X007256Y017296D02*
X008236Y017296D01*
X008236Y017380D02*
X007256Y017380D01*
X007256Y017464D02*
X008236Y017464D01*
X008236Y017548D02*
X007256Y017548D01*
X007256Y017632D02*
X008236Y017632D01*
X008236Y017716D02*
X007256Y017716D01*
X008236Y016523D02*
X008236Y015759D01*
X007256Y015759D01*
X007256Y016523D01*
X008236Y016523D01*
X008236Y015843D02*
X007256Y015843D01*
X007256Y015927D02*
X008236Y015927D01*
X008236Y016011D02*
X007256Y016011D01*
X007256Y016095D02*
X008236Y016095D01*
X008236Y016179D02*
X007256Y016179D01*
X007256Y016263D02*
X008236Y016263D01*
X008236Y016347D02*
X007256Y016347D01*
X007256Y016431D02*
X008236Y016431D01*
X008236Y016515D02*
X007256Y016515D01*
X006728Y014482D02*
X005964Y014482D01*
X006728Y014482D02*
X006728Y013502D01*
X005964Y013502D01*
X005964Y014482D01*
X005964Y013586D02*
X006728Y013586D01*
X006728Y013670D02*
X005964Y013670D01*
X005964Y013754D02*
X006728Y013754D01*
X006728Y013838D02*
X005964Y013838D01*
X005964Y013922D02*
X006728Y013922D01*
X006728Y014006D02*
X005964Y014006D01*
X005964Y014090D02*
X006728Y014090D01*
X006728Y014174D02*
X005964Y014174D01*
X005964Y014258D02*
X006728Y014258D01*
X006728Y014342D02*
X005964Y014342D01*
X005964Y014426D02*
X006728Y014426D01*
X005527Y014482D02*
X004763Y014482D01*
X005527Y014482D02*
X005527Y013502D01*
X004763Y013502D01*
X004763Y014482D01*
X004763Y013586D02*
X005527Y013586D01*
X005527Y013670D02*
X004763Y013670D01*
X004763Y013754D02*
X005527Y013754D01*
X005527Y013838D02*
X004763Y013838D01*
X004763Y013922D02*
X005527Y013922D01*
X005527Y014006D02*
X004763Y014006D01*
X004763Y014090D02*
X005527Y014090D01*
X005527Y014174D02*
X004763Y014174D01*
X004763Y014258D02*
X005527Y014258D01*
X005527Y014342D02*
X004763Y014342D01*
X004763Y014426D02*
X005527Y014426D01*
X003662Y012896D02*
X003662Y012132D01*
X003662Y012896D02*
X004642Y012896D01*
X004642Y012132D01*
X003662Y012132D01*
X003662Y012216D02*
X004642Y012216D01*
X004642Y012300D02*
X003662Y012300D01*
X003662Y012384D02*
X004642Y012384D01*
X004642Y012468D02*
X003662Y012468D01*
X003662Y012552D02*
X004642Y012552D01*
X004642Y012636D02*
X003662Y012636D01*
X003662Y012720D02*
X004642Y012720D01*
X004642Y012804D02*
X003662Y012804D01*
X003662Y012888D02*
X004642Y012888D01*
X003662Y011695D02*
X003662Y010931D01*
X003662Y011695D02*
X004642Y011695D01*
X004642Y010931D01*
X003662Y010931D01*
X003662Y011015D02*
X004642Y011015D01*
X004642Y011099D02*
X003662Y011099D01*
X003662Y011183D02*
X004642Y011183D01*
X004642Y011267D02*
X003662Y011267D01*
X003662Y011351D02*
X004642Y011351D01*
X004642Y011435D02*
X003662Y011435D01*
X003662Y011519D02*
X004642Y011519D01*
X004642Y011603D02*
X003662Y011603D01*
X003662Y011687D02*
X004642Y011687D01*
X006513Y009567D02*
X007277Y009567D01*
X007277Y008587D01*
X006513Y008587D01*
X006513Y009567D01*
X006513Y008671D02*
X007277Y008671D01*
X007277Y008755D02*
X006513Y008755D01*
X006513Y008839D02*
X007277Y008839D01*
X007277Y008923D02*
X006513Y008923D01*
X006513Y009007D02*
X007277Y009007D01*
X007277Y009091D02*
X006513Y009091D01*
X006513Y009175D02*
X007277Y009175D01*
X007277Y009259D02*
X006513Y009259D01*
X006513Y009343D02*
X007277Y009343D01*
X007277Y009427D02*
X006513Y009427D01*
X006513Y009511D02*
X007277Y009511D01*
X007714Y009567D02*
X008478Y009567D01*
X008478Y008587D01*
X007714Y008587D01*
X007714Y009567D01*
X007714Y008671D02*
X008478Y008671D01*
X008478Y008755D02*
X007714Y008755D01*
X007714Y008839D02*
X008478Y008839D01*
X008478Y008923D02*
X007714Y008923D01*
X007714Y009007D02*
X008478Y009007D01*
X008478Y009091D02*
X007714Y009091D01*
X007714Y009175D02*
X008478Y009175D01*
X008478Y009259D02*
X007714Y009259D01*
X007714Y009343D02*
X008478Y009343D01*
X008478Y009427D02*
X007714Y009427D01*
X007714Y009511D02*
X008478Y009511D01*
D13*
X008158Y008284D02*
X007648Y008284D01*
X008158Y008284D02*
X008158Y007696D01*
X007648Y007696D01*
X007648Y008284D01*
X007648Y007778D02*
X008158Y007778D01*
X008158Y007860D02*
X007648Y007860D01*
X007648Y007942D02*
X008158Y007942D01*
X008158Y008024D02*
X007648Y008024D01*
X007648Y008106D02*
X008158Y008106D01*
X008158Y008188D02*
X007648Y008188D01*
X007648Y008270D02*
X008158Y008270D01*
X007410Y008284D02*
X006900Y008284D01*
X007410Y008284D02*
X007410Y007696D01*
X006900Y007696D01*
X006900Y008284D01*
X006900Y007778D02*
X007410Y007778D01*
X007410Y007860D02*
X006900Y007860D01*
X006900Y007942D02*
X007410Y007942D01*
X007410Y008024D02*
X006900Y008024D01*
X006900Y008106D02*
X007410Y008106D01*
X007410Y008188D02*
X006900Y008188D01*
X006900Y008270D02*
X007410Y008270D01*
X005776Y009969D02*
X005776Y010479D01*
X006364Y010479D01*
X006364Y009969D01*
X005776Y009969D01*
X005776Y010051D02*
X006364Y010051D01*
X006364Y010133D02*
X005776Y010133D01*
X005776Y010215D02*
X006364Y010215D01*
X006364Y010297D02*
X005776Y010297D01*
X005776Y010379D02*
X006364Y010379D01*
X006364Y010461D02*
X005776Y010461D01*
X005776Y010717D02*
X005776Y011227D01*
X006364Y011227D01*
X006364Y010717D01*
X005776Y010717D01*
X005776Y010799D02*
X006364Y010799D01*
X006364Y010881D02*
X005776Y010881D01*
X005776Y010963D02*
X006364Y010963D01*
X006364Y011045D02*
X005776Y011045D01*
X005776Y011127D02*
X006364Y011127D01*
X006364Y011209D02*
X005776Y011209D01*
X005001Y010426D02*
X005001Y009916D01*
X004413Y009916D01*
X004413Y010426D01*
X005001Y010426D01*
X005001Y009998D02*
X004413Y009998D01*
X004413Y010080D02*
X005001Y010080D01*
X005001Y010162D02*
X004413Y010162D01*
X004413Y010244D02*
X005001Y010244D01*
X005001Y010326D02*
X004413Y010326D01*
X004413Y010408D02*
X005001Y010408D01*
X005001Y009678D02*
X005001Y009168D01*
X004413Y009168D01*
X004413Y009678D01*
X005001Y009678D01*
X005001Y009250D02*
X004413Y009250D01*
X004413Y009332D02*
X005001Y009332D01*
X005001Y009414D02*
X004413Y009414D01*
X004413Y009496D02*
X005001Y009496D01*
X005001Y009578D02*
X004413Y009578D01*
X004413Y009660D02*
X005001Y009660D01*
X007575Y010990D02*
X007575Y011500D01*
X007575Y010990D02*
X006987Y010990D01*
X006987Y011500D01*
X007575Y011500D01*
X007575Y011072D02*
X006987Y011072D01*
X006987Y011154D02*
X007575Y011154D01*
X007575Y011236D02*
X006987Y011236D01*
X006987Y011318D02*
X007575Y011318D01*
X007575Y011400D02*
X006987Y011400D01*
X006987Y011482D02*
X007575Y011482D01*
X007575Y011738D02*
X007575Y012248D01*
X007575Y011738D02*
X006987Y011738D01*
X006987Y012248D01*
X007575Y012248D01*
X007575Y011820D02*
X006987Y011820D01*
X006987Y011902D02*
X007575Y011902D01*
X007575Y011984D02*
X006987Y011984D01*
X006987Y012066D02*
X007575Y012066D01*
X007575Y012148D02*
X006987Y012148D01*
X006987Y012230D02*
X007575Y012230D01*
X007674Y012757D02*
X007674Y013227D01*
X008144Y013227D01*
X008144Y012757D01*
X007674Y012757D01*
X007674Y012839D02*
X008144Y012839D01*
X008144Y012921D02*
X007674Y012921D01*
X007674Y013003D02*
X008144Y013003D01*
X008144Y013085D02*
X007674Y013085D01*
X007674Y013167D02*
X008144Y013167D01*
X006847Y013227D02*
X006847Y012757D01*
X006847Y013227D02*
X007317Y013227D01*
X007317Y012757D01*
X006847Y012757D01*
X006847Y012839D02*
X007317Y012839D01*
X007317Y012921D02*
X006847Y012921D01*
X006847Y013003D02*
X007317Y013003D01*
X007317Y013085D02*
X006847Y013085D01*
X006847Y013167D02*
X007317Y013167D01*
X007702Y013863D02*
X007702Y014373D01*
X008290Y014373D01*
X008290Y013863D01*
X007702Y013863D01*
X007702Y013945D02*
X008290Y013945D01*
X008290Y014027D02*
X007702Y014027D01*
X007702Y014109D02*
X008290Y014109D01*
X008290Y014191D02*
X007702Y014191D01*
X007702Y014273D02*
X008290Y014273D01*
X008290Y014355D02*
X007702Y014355D01*
X007702Y014611D02*
X007702Y015121D01*
X008290Y015121D01*
X008290Y014611D01*
X007702Y014611D01*
X007702Y014693D02*
X008290Y014693D01*
X008290Y014775D02*
X007702Y014775D01*
X007702Y014857D02*
X008290Y014857D01*
X008290Y014939D02*
X007702Y014939D01*
X007702Y015021D02*
X008290Y015021D01*
X008290Y015103D02*
X007702Y015103D01*
X010540Y017863D02*
X010540Y018373D01*
X010540Y017863D02*
X009952Y017863D01*
X009952Y018373D01*
X010540Y018373D01*
X010540Y017945D02*
X009952Y017945D01*
X009952Y018027D02*
X010540Y018027D01*
X010540Y018109D02*
X009952Y018109D01*
X009952Y018191D02*
X010540Y018191D01*
X010540Y018273D02*
X009952Y018273D01*
X009952Y018355D02*
X010540Y018355D01*
X010540Y018611D02*
X010540Y019121D01*
X010540Y018611D02*
X009952Y018611D01*
X009952Y019121D01*
X010540Y019121D01*
X010540Y018693D02*
X009952Y018693D01*
X009952Y018775D02*
X010540Y018775D01*
X010540Y018857D02*
X009952Y018857D01*
X009952Y018939D02*
X010540Y018939D01*
X010540Y019021D02*
X009952Y019021D01*
X009952Y019103D02*
X010540Y019103D01*
X011290Y018863D02*
X011290Y019373D01*
X011290Y018863D02*
X010702Y018863D01*
X010702Y019373D01*
X011290Y019373D01*
X011290Y018945D02*
X010702Y018945D01*
X010702Y019027D02*
X011290Y019027D01*
X011290Y019109D02*
X010702Y019109D01*
X010702Y019191D02*
X011290Y019191D01*
X011290Y019273D02*
X010702Y019273D01*
X010702Y019355D02*
X011290Y019355D01*
X011290Y019611D02*
X011290Y020121D01*
X011290Y019611D02*
X010702Y019611D01*
X010702Y020121D01*
X011290Y020121D01*
X011290Y019693D02*
X010702Y019693D01*
X010702Y019775D02*
X011290Y019775D01*
X011290Y019857D02*
X010702Y019857D01*
X010702Y019939D02*
X011290Y019939D01*
X011290Y020021D02*
X010702Y020021D01*
X010702Y020103D02*
X011290Y020103D01*
X011231Y020343D02*
X010761Y020343D01*
X010761Y020813D01*
X011231Y020813D01*
X011231Y020343D01*
X011231Y020425D02*
X010761Y020425D01*
X010761Y020507D02*
X011231Y020507D01*
X011231Y020589D02*
X010761Y020589D01*
X010761Y020671D02*
X011231Y020671D01*
X011231Y020753D02*
X010761Y020753D01*
X010481Y020170D02*
X010011Y020170D01*
X010011Y020640D01*
X010481Y020640D01*
X010481Y020170D01*
X010481Y020252D02*
X010011Y020252D01*
X010011Y020334D02*
X010481Y020334D01*
X010481Y020416D02*
X010011Y020416D01*
X010011Y020498D02*
X010481Y020498D01*
X010481Y020580D02*
X010011Y020580D01*
X009625Y019948D02*
X009115Y019948D01*
X009115Y020536D01*
X009625Y020536D01*
X009625Y019948D01*
X009625Y020030D02*
X009115Y020030D01*
X009115Y020112D02*
X009625Y020112D01*
X009625Y020194D02*
X009115Y020194D01*
X009115Y020276D02*
X009625Y020276D01*
X009625Y020358D02*
X009115Y020358D01*
X009115Y020440D02*
X009625Y020440D01*
X009625Y020522D02*
X009115Y020522D01*
X008877Y019948D02*
X008367Y019948D01*
X008367Y020536D01*
X008877Y020536D01*
X008877Y019948D01*
X008877Y020030D02*
X008367Y020030D01*
X008367Y020112D02*
X008877Y020112D01*
X008877Y020194D02*
X008367Y020194D01*
X008367Y020276D02*
X008877Y020276D01*
X008877Y020358D02*
X008367Y020358D01*
X008367Y020440D02*
X008877Y020440D01*
X008877Y020522D02*
X008367Y020522D01*
X008125Y019948D02*
X007615Y019948D01*
X007615Y020536D01*
X008125Y020536D01*
X008125Y019948D01*
X008125Y020030D02*
X007615Y020030D01*
X007615Y020112D02*
X008125Y020112D01*
X008125Y020194D02*
X007615Y020194D01*
X007615Y020276D02*
X008125Y020276D01*
X008125Y020358D02*
X007615Y020358D01*
X007615Y020440D02*
X008125Y020440D01*
X008125Y020522D02*
X007615Y020522D01*
X007377Y019948D02*
X006867Y019948D01*
X006867Y020536D01*
X007377Y020536D01*
X007377Y019948D01*
X007377Y020030D02*
X006867Y020030D01*
X006867Y020112D02*
X007377Y020112D01*
X007377Y020194D02*
X006867Y020194D01*
X006867Y020276D02*
X007377Y020276D01*
X007377Y020358D02*
X006867Y020358D01*
X006867Y020440D02*
X007377Y020440D01*
X007377Y020522D02*
X006867Y020522D01*
X010011Y019343D02*
X010481Y019343D01*
X010011Y019343D02*
X010011Y019813D01*
X010481Y019813D01*
X010481Y019343D01*
X010481Y019425D02*
X010011Y019425D01*
X010011Y019507D02*
X010481Y019507D01*
X010481Y019589D02*
X010011Y019589D01*
X010011Y019671D02*
X010481Y019671D01*
X010481Y019753D02*
X010011Y019753D01*
X010761Y021170D02*
X011231Y021170D01*
X010761Y021170D02*
X010761Y021640D01*
X011231Y021640D01*
X011231Y021170D01*
X011231Y021252D02*
X010761Y021252D01*
X010761Y021334D02*
X011231Y021334D01*
X011231Y021416D02*
X010761Y021416D01*
X010761Y021498D02*
X011231Y021498D01*
X011231Y021580D02*
X010761Y021580D01*
X009625Y025786D02*
X009115Y025786D01*
X009625Y025786D02*
X009625Y025198D01*
X009115Y025198D01*
X009115Y025786D01*
X009115Y025280D02*
X009625Y025280D01*
X009625Y025362D02*
X009115Y025362D01*
X009115Y025444D02*
X009625Y025444D01*
X009625Y025526D02*
X009115Y025526D01*
X009115Y025608D02*
X009625Y025608D01*
X009625Y025690D02*
X009115Y025690D01*
X009115Y025772D02*
X009625Y025772D01*
X008877Y025786D02*
X008367Y025786D01*
X008877Y025786D02*
X008877Y025198D01*
X008367Y025198D01*
X008367Y025786D01*
X008367Y025280D02*
X008877Y025280D01*
X008877Y025362D02*
X008367Y025362D01*
X008367Y025444D02*
X008877Y025444D01*
X008877Y025526D02*
X008367Y025526D01*
X008367Y025608D02*
X008877Y025608D01*
X008877Y025690D02*
X008367Y025690D01*
X008367Y025772D02*
X008877Y025772D01*
X007625Y025198D02*
X007115Y025198D01*
X007115Y025786D01*
X007625Y025786D01*
X007625Y025198D01*
X007625Y025280D02*
X007115Y025280D01*
X007115Y025362D02*
X007625Y025362D01*
X007625Y025444D02*
X007115Y025444D01*
X007115Y025526D02*
X007625Y025526D01*
X007625Y025608D02*
X007115Y025608D01*
X007115Y025690D02*
X007625Y025690D01*
X007625Y025772D02*
X007115Y025772D01*
X006877Y025198D02*
X006367Y025198D01*
X006367Y025786D01*
X006877Y025786D01*
X006877Y025198D01*
X006877Y025280D02*
X006367Y025280D01*
X006367Y025362D02*
X006877Y025362D01*
X006877Y025444D02*
X006367Y025444D01*
X006367Y025526D02*
X006877Y025526D01*
X006877Y025608D02*
X006367Y025608D01*
X006367Y025690D02*
X006877Y025690D01*
X006877Y025772D02*
X006367Y025772D01*
X015117Y021536D02*
X015627Y021536D01*
X015627Y020948D01*
X015117Y020948D01*
X015117Y021536D01*
X015117Y021030D02*
X015627Y021030D01*
X015627Y021112D02*
X015117Y021112D01*
X015117Y021194D02*
X015627Y021194D01*
X015627Y021276D02*
X015117Y021276D01*
X015117Y021358D02*
X015627Y021358D01*
X015627Y021440D02*
X015117Y021440D01*
X015117Y021522D02*
X015627Y021522D01*
X015865Y021536D02*
X016375Y021536D01*
X016375Y020948D01*
X015865Y020948D01*
X015865Y021536D01*
X015865Y021030D02*
X016375Y021030D01*
X016375Y021112D02*
X015865Y021112D01*
X015865Y021194D02*
X016375Y021194D01*
X016375Y021276D02*
X015865Y021276D01*
X015865Y021358D02*
X016375Y021358D01*
X016375Y021440D02*
X015865Y021440D01*
X015865Y021522D02*
X016375Y021522D01*
X017117Y021536D02*
X017627Y021536D01*
X017627Y020948D01*
X017117Y020948D01*
X017117Y021536D01*
X017117Y021030D02*
X017627Y021030D01*
X017627Y021112D02*
X017117Y021112D01*
X017117Y021194D02*
X017627Y021194D01*
X017627Y021276D02*
X017117Y021276D01*
X017117Y021358D02*
X017627Y021358D01*
X017627Y021440D02*
X017117Y021440D01*
X017117Y021522D02*
X017627Y021522D01*
X017865Y021536D02*
X018375Y021536D01*
X018375Y020948D01*
X017865Y020948D01*
X017865Y021536D01*
X017865Y021030D02*
X018375Y021030D01*
X018375Y021112D02*
X017865Y021112D01*
X017865Y021194D02*
X018375Y021194D01*
X018375Y021276D02*
X017865Y021276D01*
X017865Y021358D02*
X018375Y021358D01*
X018375Y021440D02*
X017865Y021440D01*
X017865Y021522D02*
X018375Y021522D01*
X021040Y021613D02*
X021040Y022123D01*
X021040Y021613D02*
X020452Y021613D01*
X020452Y022123D01*
X021040Y022123D01*
X021040Y021695D02*
X020452Y021695D01*
X020452Y021777D02*
X021040Y021777D01*
X021040Y021859D02*
X020452Y021859D01*
X020452Y021941D02*
X021040Y021941D01*
X021040Y022023D02*
X020452Y022023D01*
X020452Y022105D02*
X021040Y022105D01*
X021040Y022361D02*
X021040Y022871D01*
X021040Y022361D02*
X020452Y022361D01*
X020452Y022871D01*
X021040Y022871D01*
X021040Y022443D02*
X020452Y022443D01*
X020452Y022525D02*
X021040Y022525D01*
X021040Y022607D02*
X020452Y022607D01*
X020452Y022689D02*
X021040Y022689D01*
X021040Y022771D02*
X020452Y022771D01*
X020452Y022853D02*
X021040Y022853D01*
X023040Y022871D02*
X023040Y022361D01*
X022452Y022361D01*
X022452Y022871D01*
X023040Y022871D01*
X023040Y022443D02*
X022452Y022443D01*
X022452Y022525D02*
X023040Y022525D01*
X023040Y022607D02*
X022452Y022607D01*
X022452Y022689D02*
X023040Y022689D01*
X023040Y022771D02*
X022452Y022771D01*
X022452Y022853D02*
X023040Y022853D01*
X023040Y022123D02*
X023040Y021613D01*
X022452Y021613D01*
X022452Y022123D01*
X023040Y022123D01*
X023040Y021695D02*
X022452Y021695D01*
X022452Y021777D02*
X023040Y021777D01*
X023040Y021859D02*
X022452Y021859D01*
X022452Y021941D02*
X023040Y021941D01*
X023040Y022023D02*
X022452Y022023D01*
X022452Y022105D02*
X023040Y022105D01*
X022290Y017621D02*
X022290Y017111D01*
X021702Y017111D01*
X021702Y017621D01*
X022290Y017621D01*
X022290Y017193D02*
X021702Y017193D01*
X021702Y017275D02*
X022290Y017275D01*
X022290Y017357D02*
X021702Y017357D01*
X021702Y017439D02*
X022290Y017439D01*
X022290Y017521D02*
X021702Y017521D01*
X021702Y017603D02*
X022290Y017603D01*
X022290Y016873D02*
X022290Y016363D01*
X021702Y016363D01*
X021702Y016873D01*
X022290Y016873D01*
X022290Y016445D02*
X021702Y016445D01*
X021702Y016527D02*
X022290Y016527D01*
X022290Y016609D02*
X021702Y016609D01*
X021702Y016691D02*
X022290Y016691D01*
X022290Y016773D02*
X021702Y016773D01*
X021702Y016855D02*
X022290Y016855D01*
X025202Y014121D02*
X025202Y013611D01*
X025202Y014121D02*
X025790Y014121D01*
X025790Y013611D01*
X025202Y013611D01*
X025202Y013693D02*
X025790Y013693D01*
X025790Y013775D02*
X025202Y013775D01*
X025202Y013857D02*
X025790Y013857D01*
X025790Y013939D02*
X025202Y013939D01*
X025202Y014021D02*
X025790Y014021D01*
X025790Y014103D02*
X025202Y014103D01*
X025202Y013373D02*
X025202Y012863D01*
X025202Y013373D02*
X025790Y013373D01*
X025790Y012863D01*
X025202Y012863D01*
X025202Y012945D02*
X025790Y012945D01*
X025790Y013027D02*
X025202Y013027D01*
X025202Y013109D02*
X025790Y013109D01*
X025790Y013191D02*
X025202Y013191D01*
X025202Y013273D02*
X025790Y013273D01*
X025790Y013355D02*
X025202Y013355D01*
X027761Y004920D02*
X028231Y004920D01*
X027761Y004920D02*
X027761Y005390D01*
X028231Y005390D01*
X028231Y004920D01*
X028231Y005002D02*
X027761Y005002D01*
X027761Y005084D02*
X028231Y005084D01*
X028231Y005166D02*
X027761Y005166D01*
X027761Y005248D02*
X028231Y005248D01*
X028231Y005330D02*
X027761Y005330D01*
X027761Y004093D02*
X028231Y004093D01*
X027761Y004093D02*
X027761Y004563D01*
X028231Y004563D01*
X028231Y004093D01*
X028231Y004175D02*
X027761Y004175D01*
X027761Y004257D02*
X028231Y004257D01*
X028231Y004339D02*
X027761Y004339D01*
X027761Y004421D02*
X028231Y004421D01*
X028231Y004503D02*
X027761Y004503D01*
X028290Y003371D02*
X028290Y002861D01*
X027702Y002861D01*
X027702Y003371D01*
X028290Y003371D01*
X028290Y002943D02*
X027702Y002943D01*
X027702Y003025D02*
X028290Y003025D01*
X028290Y003107D02*
X027702Y003107D01*
X027702Y003189D02*
X028290Y003189D01*
X028290Y003271D02*
X027702Y003271D01*
X027702Y003353D02*
X028290Y003353D01*
X028290Y002623D02*
X028290Y002113D01*
X027702Y002113D01*
X027702Y002623D01*
X028290Y002623D01*
X028290Y002195D02*
X027702Y002195D01*
X027702Y002277D02*
X028290Y002277D01*
X028290Y002359D02*
X027702Y002359D01*
X027702Y002441D02*
X028290Y002441D01*
X028290Y002523D02*
X027702Y002523D01*
X027702Y002605D02*
X028290Y002605D01*
X021231Y002670D02*
X020761Y002670D01*
X020761Y003140D01*
X021231Y003140D01*
X021231Y002670D01*
X021231Y002752D02*
X020761Y002752D01*
X020761Y002834D02*
X021231Y002834D01*
X021231Y002916D02*
X020761Y002916D01*
X020761Y002998D02*
X021231Y002998D01*
X021231Y003080D02*
X020761Y003080D01*
X020231Y002670D02*
X019761Y002670D01*
X019761Y003140D01*
X020231Y003140D01*
X020231Y002670D01*
X020231Y002752D02*
X019761Y002752D01*
X019761Y002834D02*
X020231Y002834D01*
X020231Y002916D02*
X019761Y002916D01*
X019761Y002998D02*
X020231Y002998D01*
X020231Y003080D02*
X019761Y003080D01*
X019231Y002670D02*
X018761Y002670D01*
X018761Y003140D01*
X019231Y003140D01*
X019231Y002670D01*
X019231Y002752D02*
X018761Y002752D01*
X018761Y002834D02*
X019231Y002834D01*
X019231Y002916D02*
X018761Y002916D01*
X018761Y002998D02*
X019231Y002998D01*
X019231Y003080D02*
X018761Y003080D01*
X018761Y001843D02*
X019231Y001843D01*
X018761Y001843D02*
X018761Y002313D01*
X019231Y002313D01*
X019231Y001843D01*
X019231Y001925D02*
X018761Y001925D01*
X018761Y002007D02*
X019231Y002007D01*
X019231Y002089D02*
X018761Y002089D01*
X018761Y002171D02*
X019231Y002171D01*
X019231Y002253D02*
X018761Y002253D01*
X019761Y001843D02*
X020231Y001843D01*
X019761Y001843D02*
X019761Y002313D01*
X020231Y002313D01*
X020231Y001843D01*
X020231Y001925D02*
X019761Y001925D01*
X019761Y002007D02*
X020231Y002007D01*
X020231Y002089D02*
X019761Y002089D01*
X019761Y002171D02*
X020231Y002171D01*
X020231Y002253D02*
X019761Y002253D01*
X020761Y001843D02*
X021231Y001843D01*
X020761Y001843D02*
X020761Y002313D01*
X021231Y002313D01*
X021231Y001843D01*
X021231Y001925D02*
X020761Y001925D01*
X020761Y002007D02*
X021231Y002007D01*
X021231Y002089D02*
X020761Y002089D01*
X020761Y002171D02*
X021231Y002171D01*
X021231Y002253D02*
X020761Y002253D01*
X021290Y004363D02*
X021290Y004873D01*
X021290Y004363D02*
X020702Y004363D01*
X020702Y004873D01*
X021290Y004873D01*
X021290Y004445D02*
X020702Y004445D01*
X020702Y004527D02*
X021290Y004527D01*
X021290Y004609D02*
X020702Y004609D01*
X020702Y004691D02*
X021290Y004691D01*
X021290Y004773D02*
X020702Y004773D01*
X020702Y004855D02*
X021290Y004855D01*
X021290Y005111D02*
X021290Y005621D01*
X021290Y005111D02*
X020702Y005111D01*
X020702Y005621D01*
X021290Y005621D01*
X021290Y005193D02*
X020702Y005193D01*
X020702Y005275D02*
X021290Y005275D01*
X021290Y005357D02*
X020702Y005357D01*
X020702Y005439D02*
X021290Y005439D01*
X021290Y005521D02*
X020702Y005521D01*
X020702Y005603D02*
X021290Y005603D01*
X020290Y005621D02*
X020290Y005111D01*
X019702Y005111D01*
X019702Y005621D01*
X020290Y005621D01*
X020290Y005193D02*
X019702Y005193D01*
X019702Y005275D02*
X020290Y005275D01*
X020290Y005357D02*
X019702Y005357D01*
X019702Y005439D02*
X020290Y005439D01*
X020290Y005521D02*
X019702Y005521D01*
X019702Y005603D02*
X020290Y005603D01*
X020290Y004873D02*
X020290Y004363D01*
X019702Y004363D01*
X019702Y004873D01*
X020290Y004873D01*
X020290Y004445D02*
X019702Y004445D01*
X019702Y004527D02*
X020290Y004527D01*
X020290Y004609D02*
X019702Y004609D01*
X019702Y004691D02*
X020290Y004691D01*
X020290Y004773D02*
X019702Y004773D01*
X019702Y004855D02*
X020290Y004855D01*
X019290Y004873D02*
X019290Y004363D01*
X018702Y004363D01*
X018702Y004873D01*
X019290Y004873D01*
X019290Y004445D02*
X018702Y004445D01*
X018702Y004527D02*
X019290Y004527D01*
X019290Y004609D02*
X018702Y004609D01*
X018702Y004691D02*
X019290Y004691D01*
X019290Y004773D02*
X018702Y004773D01*
X018702Y004855D02*
X019290Y004855D01*
X019290Y005111D02*
X019290Y005621D01*
X019290Y005111D02*
X018702Y005111D01*
X018702Y005621D01*
X019290Y005621D01*
X019290Y005193D02*
X018702Y005193D01*
X018702Y005275D02*
X019290Y005275D01*
X019290Y005357D02*
X018702Y005357D01*
X018702Y005439D02*
X019290Y005439D01*
X019290Y005521D02*
X018702Y005521D01*
X018702Y005603D02*
X019290Y005603D01*
X016125Y008286D02*
X015615Y008286D01*
X016125Y008286D02*
X016125Y007698D01*
X015615Y007698D01*
X015615Y008286D01*
X015615Y007780D02*
X016125Y007780D01*
X016125Y007862D02*
X015615Y007862D01*
X015615Y007944D02*
X016125Y007944D01*
X016125Y008026D02*
X015615Y008026D01*
X015615Y008108D02*
X016125Y008108D01*
X016125Y008190D02*
X015615Y008190D01*
X015615Y008272D02*
X016125Y008272D01*
X015377Y008286D02*
X014867Y008286D01*
X015377Y008286D02*
X015377Y007698D01*
X014867Y007698D01*
X014867Y008286D01*
X014867Y007780D02*
X015377Y007780D01*
X015377Y007862D02*
X014867Y007862D01*
X014867Y007944D02*
X015377Y007944D01*
X015377Y008026D02*
X014867Y008026D01*
X014867Y008108D02*
X015377Y008108D01*
X015377Y008190D02*
X014867Y008190D01*
X014867Y008272D02*
X015377Y008272D01*
X011463Y008264D02*
X010953Y008264D01*
X011463Y008264D02*
X011463Y007676D01*
X010953Y007676D01*
X010953Y008264D01*
X010953Y007758D02*
X011463Y007758D01*
X011463Y007840D02*
X010953Y007840D01*
X010953Y007922D02*
X011463Y007922D01*
X011463Y008004D02*
X010953Y008004D01*
X010953Y008086D02*
X011463Y008086D01*
X011463Y008168D02*
X010953Y008168D01*
X010953Y008250D02*
X011463Y008250D01*
X010715Y008264D02*
X010205Y008264D01*
X010715Y008264D02*
X010715Y007676D01*
X010205Y007676D01*
X010205Y008264D01*
X010205Y007758D02*
X010715Y007758D01*
X010715Y007840D02*
X010205Y007840D01*
X010205Y007922D02*
X010715Y007922D01*
X010715Y008004D02*
X010205Y008004D01*
X010205Y008086D02*
X010715Y008086D01*
X010715Y008168D02*
X010205Y008168D01*
X010205Y008250D02*
X010715Y008250D01*
X011040Y010863D02*
X011040Y011373D01*
X011040Y010863D02*
X010452Y010863D01*
X010452Y011373D01*
X011040Y011373D01*
X011040Y010945D02*
X010452Y010945D01*
X010452Y011027D02*
X011040Y011027D01*
X011040Y011109D02*
X010452Y011109D01*
X010452Y011191D02*
X011040Y011191D01*
X011040Y011273D02*
X010452Y011273D01*
X010452Y011355D02*
X011040Y011355D01*
X011040Y011611D02*
X011040Y012121D01*
X011040Y011611D02*
X010452Y011611D01*
X010452Y012121D01*
X011040Y012121D01*
X011040Y011693D02*
X010452Y011693D01*
X010452Y011775D02*
X011040Y011775D01*
X011040Y011857D02*
X010452Y011857D01*
X010452Y011939D02*
X011040Y011939D01*
X011040Y012021D02*
X010452Y012021D01*
X010452Y012103D02*
X011040Y012103D01*
X009664Y010876D02*
X009154Y010876D01*
X009154Y011464D01*
X009664Y011464D01*
X009664Y010876D01*
X009664Y010958D02*
X009154Y010958D01*
X009154Y011040D02*
X009664Y011040D01*
X009664Y011122D02*
X009154Y011122D01*
X009154Y011204D02*
X009664Y011204D01*
X009664Y011286D02*
X009154Y011286D01*
X009154Y011368D02*
X009664Y011368D01*
X009664Y011450D02*
X009154Y011450D01*
X008916Y010876D02*
X008406Y010876D01*
X008406Y011464D01*
X008916Y011464D01*
X008916Y010876D01*
X008916Y010958D02*
X008406Y010958D01*
X008406Y011040D02*
X008916Y011040D01*
X008916Y011122D02*
X008406Y011122D01*
X008406Y011204D02*
X008916Y011204D01*
X008916Y011286D02*
X008406Y011286D01*
X008406Y011368D02*
X008916Y011368D01*
X008916Y011450D02*
X008406Y011450D01*
X012790Y015613D02*
X012790Y016123D01*
X012790Y015613D02*
X012202Y015613D01*
X012202Y016123D01*
X012790Y016123D01*
X012790Y015695D02*
X012202Y015695D01*
X012202Y015777D02*
X012790Y015777D01*
X012790Y015859D02*
X012202Y015859D01*
X012202Y015941D02*
X012790Y015941D01*
X012790Y016023D02*
X012202Y016023D01*
X012202Y016105D02*
X012790Y016105D01*
X012790Y016361D02*
X012790Y016871D01*
X012790Y016361D02*
X012202Y016361D01*
X012202Y016871D01*
X012790Y016871D01*
X012790Y016443D02*
X012202Y016443D01*
X012202Y016525D02*
X012790Y016525D01*
X012790Y016607D02*
X012202Y016607D01*
X012202Y016689D02*
X012790Y016689D01*
X012790Y016771D02*
X012202Y016771D01*
X012202Y016853D02*
X012790Y016853D01*
D14*
X006381Y016797D02*
X006381Y016207D01*
X005591Y016207D01*
X005591Y016797D01*
X006381Y016797D01*
X006381Y016286D02*
X005591Y016286D01*
X005591Y016365D02*
X006381Y016365D01*
X006381Y016444D02*
X005591Y016444D01*
X005591Y016523D02*
X006381Y016523D01*
X006381Y016602D02*
X005591Y016602D01*
X005591Y016681D02*
X006381Y016681D01*
X006381Y016760D02*
X005591Y016760D01*
X006381Y017107D02*
X006381Y017697D01*
X006381Y017107D02*
X005591Y017107D01*
X005591Y017697D01*
X006381Y017697D01*
X006381Y017186D02*
X005591Y017186D01*
X005591Y017265D02*
X006381Y017265D01*
X006381Y017344D02*
X005591Y017344D01*
X005591Y017423D02*
X006381Y017423D01*
X006381Y017502D02*
X005591Y017502D01*
X005591Y017581D02*
X006381Y017581D01*
X006381Y017660D02*
X005591Y017660D01*
X006381Y015897D02*
X006381Y015307D01*
X005591Y015307D01*
X005591Y015897D01*
X006381Y015897D01*
X006381Y015386D02*
X005591Y015386D01*
X005591Y015465D02*
X006381Y015465D01*
X006381Y015544D02*
X005591Y015544D01*
X005591Y015623D02*
X006381Y015623D01*
X006381Y015702D02*
X005591Y015702D01*
X005591Y015781D02*
X006381Y015781D01*
X006381Y015860D02*
X005591Y015860D01*
D15*
X003898Y015745D02*
X003898Y017239D01*
X003898Y015745D02*
X003114Y015745D01*
X003114Y017239D01*
X003898Y017239D01*
X003898Y015831D02*
X003114Y015831D01*
X003114Y015917D02*
X003898Y015917D01*
X003898Y016003D02*
X003114Y016003D01*
X003114Y016089D02*
X003898Y016089D01*
X003898Y016175D02*
X003114Y016175D01*
X003114Y016261D02*
X003898Y016261D01*
X003898Y016347D02*
X003114Y016347D01*
X003114Y016433D02*
X003898Y016433D01*
X003898Y016519D02*
X003114Y016519D01*
X003114Y016605D02*
X003898Y016605D01*
X003898Y016691D02*
X003114Y016691D01*
X003114Y016777D02*
X003898Y016777D01*
X003898Y016863D02*
X003114Y016863D01*
X003114Y016949D02*
X003898Y016949D01*
X003898Y017035D02*
X003114Y017035D01*
X003114Y017121D02*
X003898Y017121D01*
X003898Y017207D02*
X003114Y017207D01*
D16*
X004488Y021264D02*
X005472Y021264D01*
X004488Y021264D02*
X004488Y021460D01*
X005472Y021460D01*
X005472Y021264D01*
X005472Y021343D02*
X004488Y021343D01*
X004488Y021422D02*
X005472Y021422D01*
X005472Y021579D02*
X004488Y021579D01*
X004488Y021775D01*
X005472Y021775D01*
X005472Y021579D01*
X005472Y021658D02*
X004488Y021658D01*
X004488Y021737D02*
X005472Y021737D01*
X005472Y021894D02*
X004488Y021894D01*
X004488Y022090D01*
X005472Y022090D01*
X005472Y021894D01*
X005472Y021973D02*
X004488Y021973D01*
X004488Y022052D02*
X005472Y022052D01*
X005472Y022209D02*
X004488Y022209D01*
X004488Y022405D01*
X005472Y022405D01*
X005472Y022209D01*
X005472Y022288D02*
X004488Y022288D01*
X004488Y022367D02*
X005472Y022367D01*
X005472Y022524D02*
X004488Y022524D01*
X004488Y022720D01*
X005472Y022720D01*
X005472Y022524D01*
X005472Y022603D02*
X004488Y022603D01*
X004488Y022682D02*
X005472Y022682D01*
X006764Y021827D02*
X006900Y021827D01*
X006900Y021277D01*
X006764Y021277D01*
X006764Y021827D01*
X006764Y021356D02*
X006900Y021356D01*
X006900Y021435D02*
X006764Y021435D01*
X006764Y021514D02*
X006900Y021514D01*
X006900Y021593D02*
X006764Y021593D01*
X006764Y021672D02*
X006900Y021672D01*
X006900Y021751D02*
X006764Y021751D01*
X007020Y021827D02*
X007156Y021827D01*
X007156Y021277D01*
X007020Y021277D01*
X007020Y021827D01*
X007020Y021356D02*
X007156Y021356D01*
X007156Y021435D02*
X007020Y021435D01*
X007020Y021514D02*
X007156Y021514D01*
X007156Y021593D02*
X007020Y021593D01*
X007020Y021672D02*
X007156Y021672D01*
X007156Y021751D02*
X007020Y021751D01*
X007276Y021827D02*
X007412Y021827D01*
X007412Y021277D01*
X007276Y021277D01*
X007276Y021827D01*
X007276Y021356D02*
X007412Y021356D01*
X007412Y021435D02*
X007276Y021435D01*
X007276Y021514D02*
X007412Y021514D01*
X007412Y021593D02*
X007276Y021593D01*
X007276Y021672D02*
X007412Y021672D01*
X007412Y021751D02*
X007276Y021751D01*
X007532Y021827D02*
X007668Y021827D01*
X007668Y021277D01*
X007532Y021277D01*
X007532Y021827D01*
X007532Y021356D02*
X007668Y021356D01*
X007668Y021435D02*
X007532Y021435D01*
X007532Y021514D02*
X007668Y021514D01*
X007668Y021593D02*
X007532Y021593D01*
X007532Y021672D02*
X007668Y021672D01*
X007668Y021751D02*
X007532Y021751D01*
X007788Y021827D02*
X007924Y021827D01*
X007924Y021277D01*
X007788Y021277D01*
X007788Y021827D01*
X007788Y021356D02*
X007924Y021356D01*
X007924Y021435D02*
X007788Y021435D01*
X007788Y021514D02*
X007924Y021514D01*
X007924Y021593D02*
X007788Y021593D01*
X007788Y021672D02*
X007924Y021672D01*
X007924Y021751D02*
X007788Y021751D01*
X008044Y021827D02*
X008180Y021827D01*
X008180Y021277D01*
X008044Y021277D01*
X008044Y021827D01*
X008044Y021356D02*
X008180Y021356D01*
X008180Y021435D02*
X008044Y021435D01*
X008044Y021514D02*
X008180Y021514D01*
X008180Y021593D02*
X008044Y021593D01*
X008044Y021672D02*
X008180Y021672D01*
X008180Y021751D02*
X008044Y021751D01*
X008300Y021827D02*
X008436Y021827D01*
X008436Y021277D01*
X008300Y021277D01*
X008300Y021827D01*
X008300Y021356D02*
X008436Y021356D01*
X008436Y021435D02*
X008300Y021435D01*
X008300Y021514D02*
X008436Y021514D01*
X008436Y021593D02*
X008300Y021593D01*
X008300Y021672D02*
X008436Y021672D01*
X008436Y021751D02*
X008300Y021751D01*
X008556Y021827D02*
X008692Y021827D01*
X008692Y021277D01*
X008556Y021277D01*
X008556Y021827D01*
X008556Y021356D02*
X008692Y021356D01*
X008692Y021435D02*
X008556Y021435D01*
X008556Y021514D02*
X008692Y021514D01*
X008692Y021593D02*
X008556Y021593D01*
X008556Y021672D02*
X008692Y021672D01*
X008692Y021751D02*
X008556Y021751D01*
X008811Y021827D02*
X008947Y021827D01*
X008947Y021277D01*
X008811Y021277D01*
X008811Y021827D01*
X008811Y021356D02*
X008947Y021356D01*
X008947Y021435D02*
X008811Y021435D01*
X008811Y021514D02*
X008947Y021514D01*
X008947Y021593D02*
X008811Y021593D01*
X008811Y021672D02*
X008947Y021672D01*
X008947Y021751D02*
X008811Y021751D01*
X009067Y021827D02*
X009203Y021827D01*
X009203Y021277D01*
X009067Y021277D01*
X009067Y021827D01*
X009067Y021356D02*
X009203Y021356D01*
X009203Y021435D02*
X009067Y021435D01*
X009067Y021514D02*
X009203Y021514D01*
X009203Y021593D02*
X009067Y021593D01*
X009067Y021672D02*
X009203Y021672D01*
X009203Y021751D02*
X009067Y021751D01*
X009323Y021827D02*
X009459Y021827D01*
X009459Y021277D01*
X009323Y021277D01*
X009323Y021827D01*
X009323Y021356D02*
X009459Y021356D01*
X009459Y021435D02*
X009323Y021435D01*
X009323Y021514D02*
X009459Y021514D01*
X009459Y021593D02*
X009323Y021593D01*
X009323Y021672D02*
X009459Y021672D01*
X009459Y021751D02*
X009323Y021751D01*
X009579Y021827D02*
X009715Y021827D01*
X009715Y021277D01*
X009579Y021277D01*
X009579Y021827D01*
X009579Y021356D02*
X009715Y021356D01*
X009715Y021435D02*
X009579Y021435D01*
X009579Y021514D02*
X009715Y021514D01*
X009715Y021593D02*
X009579Y021593D01*
X009579Y021672D02*
X009715Y021672D01*
X009715Y021751D02*
X009579Y021751D01*
X009835Y021827D02*
X009971Y021827D01*
X009971Y021277D01*
X009835Y021277D01*
X009835Y021827D01*
X009835Y021356D02*
X009971Y021356D01*
X009971Y021435D02*
X009835Y021435D01*
X009835Y021514D02*
X009971Y021514D01*
X009971Y021593D02*
X009835Y021593D01*
X009835Y021672D02*
X009971Y021672D01*
X009971Y021751D02*
X009835Y021751D01*
X010091Y021827D02*
X010227Y021827D01*
X010227Y021277D01*
X010091Y021277D01*
X010091Y021827D01*
X010091Y021356D02*
X010227Y021356D01*
X010227Y021435D02*
X010091Y021435D01*
X010091Y021514D02*
X010227Y021514D01*
X010227Y021593D02*
X010091Y021593D01*
X010091Y021672D02*
X010227Y021672D01*
X010227Y021751D02*
X010091Y021751D01*
X010091Y024706D02*
X010227Y024706D01*
X010227Y024156D01*
X010091Y024156D01*
X010091Y024706D01*
X010091Y024235D02*
X010227Y024235D01*
X010227Y024314D02*
X010091Y024314D01*
X010091Y024393D02*
X010227Y024393D01*
X010227Y024472D02*
X010091Y024472D01*
X010091Y024551D02*
X010227Y024551D01*
X010227Y024630D02*
X010091Y024630D01*
X009971Y024706D02*
X009835Y024706D01*
X009971Y024706D02*
X009971Y024156D01*
X009835Y024156D01*
X009835Y024706D01*
X009835Y024235D02*
X009971Y024235D01*
X009971Y024314D02*
X009835Y024314D01*
X009835Y024393D02*
X009971Y024393D01*
X009971Y024472D02*
X009835Y024472D01*
X009835Y024551D02*
X009971Y024551D01*
X009971Y024630D02*
X009835Y024630D01*
X009715Y024706D02*
X009579Y024706D01*
X009715Y024706D02*
X009715Y024156D01*
X009579Y024156D01*
X009579Y024706D01*
X009579Y024235D02*
X009715Y024235D01*
X009715Y024314D02*
X009579Y024314D01*
X009579Y024393D02*
X009715Y024393D01*
X009715Y024472D02*
X009579Y024472D01*
X009579Y024551D02*
X009715Y024551D01*
X009715Y024630D02*
X009579Y024630D01*
X009459Y024706D02*
X009323Y024706D01*
X009459Y024706D02*
X009459Y024156D01*
X009323Y024156D01*
X009323Y024706D01*
X009323Y024235D02*
X009459Y024235D01*
X009459Y024314D02*
X009323Y024314D01*
X009323Y024393D02*
X009459Y024393D01*
X009459Y024472D02*
X009323Y024472D01*
X009323Y024551D02*
X009459Y024551D01*
X009459Y024630D02*
X009323Y024630D01*
X009203Y024706D02*
X009067Y024706D01*
X009203Y024706D02*
X009203Y024156D01*
X009067Y024156D01*
X009067Y024706D01*
X009067Y024235D02*
X009203Y024235D01*
X009203Y024314D02*
X009067Y024314D01*
X009067Y024393D02*
X009203Y024393D01*
X009203Y024472D02*
X009067Y024472D01*
X009067Y024551D02*
X009203Y024551D01*
X009203Y024630D02*
X009067Y024630D01*
X008947Y024706D02*
X008811Y024706D01*
X008947Y024706D02*
X008947Y024156D01*
X008811Y024156D01*
X008811Y024706D01*
X008811Y024235D02*
X008947Y024235D01*
X008947Y024314D02*
X008811Y024314D01*
X008811Y024393D02*
X008947Y024393D01*
X008947Y024472D02*
X008811Y024472D01*
X008811Y024551D02*
X008947Y024551D01*
X008947Y024630D02*
X008811Y024630D01*
X008692Y024706D02*
X008556Y024706D01*
X008692Y024706D02*
X008692Y024156D01*
X008556Y024156D01*
X008556Y024706D01*
X008556Y024235D02*
X008692Y024235D01*
X008692Y024314D02*
X008556Y024314D01*
X008556Y024393D02*
X008692Y024393D01*
X008692Y024472D02*
X008556Y024472D01*
X008556Y024551D02*
X008692Y024551D01*
X008692Y024630D02*
X008556Y024630D01*
X008436Y024706D02*
X008300Y024706D01*
X008436Y024706D02*
X008436Y024156D01*
X008300Y024156D01*
X008300Y024706D01*
X008300Y024235D02*
X008436Y024235D01*
X008436Y024314D02*
X008300Y024314D01*
X008300Y024393D02*
X008436Y024393D01*
X008436Y024472D02*
X008300Y024472D01*
X008300Y024551D02*
X008436Y024551D01*
X008436Y024630D02*
X008300Y024630D01*
X008180Y024706D02*
X008044Y024706D01*
X008180Y024706D02*
X008180Y024156D01*
X008044Y024156D01*
X008044Y024706D01*
X008044Y024235D02*
X008180Y024235D01*
X008180Y024314D02*
X008044Y024314D01*
X008044Y024393D02*
X008180Y024393D01*
X008180Y024472D02*
X008044Y024472D01*
X008044Y024551D02*
X008180Y024551D01*
X008180Y024630D02*
X008044Y024630D01*
X007924Y024706D02*
X007788Y024706D01*
X007924Y024706D02*
X007924Y024156D01*
X007788Y024156D01*
X007788Y024706D01*
X007788Y024235D02*
X007924Y024235D01*
X007924Y024314D02*
X007788Y024314D01*
X007788Y024393D02*
X007924Y024393D01*
X007924Y024472D02*
X007788Y024472D01*
X007788Y024551D02*
X007924Y024551D01*
X007924Y024630D02*
X007788Y024630D01*
X007668Y024706D02*
X007532Y024706D01*
X007668Y024706D02*
X007668Y024156D01*
X007532Y024156D01*
X007532Y024706D01*
X007532Y024235D02*
X007668Y024235D01*
X007668Y024314D02*
X007532Y024314D01*
X007532Y024393D02*
X007668Y024393D01*
X007668Y024472D02*
X007532Y024472D01*
X007532Y024551D02*
X007668Y024551D01*
X007668Y024630D02*
X007532Y024630D01*
X007412Y024706D02*
X007276Y024706D01*
X007412Y024706D02*
X007412Y024156D01*
X007276Y024156D01*
X007276Y024706D01*
X007276Y024235D02*
X007412Y024235D01*
X007412Y024314D02*
X007276Y024314D01*
X007276Y024393D02*
X007412Y024393D01*
X007412Y024472D02*
X007276Y024472D01*
X007276Y024551D02*
X007412Y024551D01*
X007412Y024630D02*
X007276Y024630D01*
X007156Y024706D02*
X007020Y024706D01*
X007156Y024706D02*
X007156Y024156D01*
X007020Y024156D01*
X007020Y024706D01*
X007020Y024235D02*
X007156Y024235D01*
X007156Y024314D02*
X007020Y024314D01*
X007020Y024393D02*
X007156Y024393D01*
X007156Y024472D02*
X007020Y024472D01*
X007020Y024551D02*
X007156Y024551D01*
X007156Y024630D02*
X007020Y024630D01*
X006900Y024706D02*
X006764Y024706D01*
X006900Y024706D02*
X006900Y024156D01*
X006764Y024156D01*
X006764Y024706D01*
X006764Y024235D02*
X006900Y024235D01*
X006900Y024314D02*
X006764Y024314D01*
X006764Y024393D02*
X006900Y024393D01*
X006900Y024472D02*
X006764Y024472D01*
X006764Y024551D02*
X006900Y024551D01*
X006900Y024630D02*
X006764Y024630D01*
D17*
X005469Y023373D02*
X004491Y023373D01*
X004491Y024153D01*
X005469Y024153D01*
X005469Y023373D01*
X005469Y023459D02*
X004491Y023459D01*
X004491Y023545D02*
X005469Y023545D01*
X005469Y023631D02*
X004491Y023631D01*
X004491Y023717D02*
X005469Y023717D01*
X005469Y023803D02*
X004491Y023803D01*
X004491Y023889D02*
X005469Y023889D01*
X005469Y023975D02*
X004491Y023975D01*
X004491Y024061D02*
X005469Y024061D01*
X005469Y024147D02*
X004491Y024147D01*
X003303Y023373D02*
X002325Y023373D01*
X002325Y024153D01*
X003303Y024153D01*
X003303Y023373D01*
X003303Y023459D02*
X002325Y023459D01*
X002325Y023545D02*
X003303Y023545D01*
X003303Y023631D02*
X002325Y023631D01*
X002325Y023717D02*
X003303Y023717D01*
X003303Y023803D02*
X002325Y023803D01*
X002325Y023889D02*
X003303Y023889D01*
X003303Y023975D02*
X002325Y023975D01*
X002325Y024061D02*
X003303Y024061D01*
X003303Y024147D02*
X002325Y024147D01*
X002325Y019830D02*
X003303Y019830D01*
X002325Y019830D02*
X002325Y020610D01*
X003303Y020610D01*
X003303Y019830D01*
X003303Y019916D02*
X002325Y019916D01*
X002325Y020002D02*
X003303Y020002D01*
X003303Y020088D02*
X002325Y020088D01*
X002325Y020174D02*
X003303Y020174D01*
X003303Y020260D02*
X002325Y020260D01*
X002325Y020346D02*
X003303Y020346D01*
X003303Y020432D02*
X002325Y020432D01*
X002325Y020518D02*
X003303Y020518D01*
X003303Y020604D02*
X002325Y020604D01*
X004491Y019830D02*
X005469Y019830D01*
X004491Y019830D02*
X004491Y020610D01*
X005469Y020610D01*
X005469Y019830D01*
X005469Y019916D02*
X004491Y019916D01*
X004491Y020002D02*
X005469Y020002D01*
X005469Y020088D02*
X004491Y020088D01*
X004491Y020174D02*
X005469Y020174D01*
X005469Y020260D02*
X004491Y020260D01*
X004491Y020346D02*
X005469Y020346D01*
X005469Y020432D02*
X004491Y020432D01*
X004491Y020518D02*
X005469Y020518D01*
X005469Y020604D02*
X004491Y020604D01*
D18*
X003996Y021126D03*
X003996Y022858D03*
D19*
X026996Y020992D03*
D20*
X027996Y020992D03*
X027996Y019992D03*
X027996Y018992D03*
X027996Y017992D03*
X027996Y016992D03*
X027996Y015992D03*
X027996Y014992D03*
X027996Y013992D03*
X027996Y012992D03*
X027996Y011992D03*
X026996Y011992D03*
X026996Y012992D03*
X026996Y013992D03*
X026996Y014992D03*
X026996Y015992D03*
X026996Y016992D03*
X026996Y017992D03*
X026996Y018992D03*
X026996Y019992D03*
D21*
X022746Y020492D03*
X020746Y020492D03*
D22*
X018076Y011132D02*
X017476Y011132D01*
X017476Y009352D02*
X018076Y009352D01*
X015516Y009352D02*
X014916Y009352D01*
X014916Y011132D02*
X015516Y011132D01*
X022106Y005322D02*
X022106Y004722D01*
X023886Y004722D02*
X023886Y005322D01*
X025106Y005322D02*
X025106Y004722D01*
X026886Y004722D02*
X026886Y005322D01*
X026886Y002762D02*
X026886Y002162D01*
X025106Y002162D02*
X025106Y002762D01*
X023886Y002762D02*
X023886Y002162D01*
X022106Y002162D02*
X022106Y002762D01*
D23*
X014908Y002636D02*
X014634Y002636D01*
X014908Y002636D02*
X014908Y002166D01*
X014634Y002166D01*
X014634Y002636D01*
X014634Y002247D02*
X014908Y002247D01*
X014908Y002328D02*
X014634Y002328D01*
X014634Y002409D02*
X014908Y002409D01*
X014908Y002490D02*
X014634Y002490D01*
X014634Y002571D02*
X014908Y002571D01*
X014357Y002636D02*
X014083Y002636D01*
X014357Y002636D02*
X014357Y002166D01*
X014083Y002166D01*
X014083Y002636D01*
X014083Y002247D02*
X014357Y002247D01*
X014357Y002328D02*
X014083Y002328D01*
X014083Y002409D02*
X014357Y002409D01*
X014357Y002490D02*
X014083Y002490D01*
X014083Y002571D02*
X014357Y002571D01*
X014357Y003817D02*
X014083Y003817D01*
X014357Y003817D02*
X014357Y003347D01*
X014083Y003347D01*
X014083Y003817D01*
X014083Y003428D02*
X014357Y003428D01*
X014357Y003509D02*
X014083Y003509D01*
X014083Y003590D02*
X014357Y003590D01*
X014357Y003671D02*
X014083Y003671D01*
X014083Y003752D02*
X014357Y003752D01*
X014634Y003817D02*
X014908Y003817D01*
X014908Y003347D01*
X014634Y003347D01*
X014634Y003817D01*
X014634Y003428D02*
X014908Y003428D01*
X014908Y003509D02*
X014634Y003509D01*
X014634Y003590D02*
X014908Y003590D01*
X014908Y003671D02*
X014634Y003671D01*
X014634Y003752D02*
X014908Y003752D01*
D24*
X012926Y003936D03*
X012176Y004436D03*
X012926Y004936D03*
D25*
X005244Y019096D02*
X004850Y019096D01*
X005244Y019096D02*
X005244Y018388D01*
X004850Y018388D01*
X004850Y019096D01*
X004850Y018468D02*
X005244Y018468D01*
X005244Y018548D02*
X004850Y018548D01*
X004850Y018628D02*
X005244Y018628D01*
X005244Y018708D02*
X004850Y018708D01*
X004850Y018788D02*
X005244Y018788D01*
X005244Y018868D02*
X004850Y018868D01*
X004850Y018948D02*
X005244Y018948D01*
X005244Y019028D02*
X004850Y019028D01*
X004141Y019096D02*
X003747Y019096D01*
X004141Y019096D02*
X004141Y018388D01*
X003747Y018388D01*
X003747Y019096D01*
X003747Y018468D02*
X004141Y018468D01*
X004141Y018548D02*
X003747Y018548D01*
X003747Y018628D02*
X004141Y018628D01*
X004141Y018708D02*
X003747Y018708D01*
X003747Y018788D02*
X004141Y018788D01*
X004141Y018868D02*
X003747Y018868D01*
X003747Y018948D02*
X004141Y018948D01*
X004141Y019028D02*
X003747Y019028D01*
D26*
X010040Y010359D02*
X010040Y010125D01*
X010040Y010359D02*
X010904Y010359D01*
X010904Y010125D01*
X010040Y010125D01*
X010040Y010206D02*
X010904Y010206D01*
X010904Y010287D02*
X010040Y010287D01*
X010040Y009859D02*
X010040Y009625D01*
X010040Y009859D02*
X010904Y009859D01*
X010904Y009625D01*
X010040Y009625D01*
X010040Y009706D02*
X010904Y009706D01*
X010904Y009787D02*
X010040Y009787D01*
X010040Y009359D02*
X010040Y009125D01*
X010040Y009359D02*
X010904Y009359D01*
X010904Y009125D01*
X010040Y009125D01*
X010040Y009206D02*
X010904Y009206D01*
X010904Y009287D02*
X010040Y009287D01*
X010040Y008859D02*
X010040Y008625D01*
X010040Y008859D02*
X010904Y008859D01*
X010904Y008625D01*
X010040Y008625D01*
X010040Y008706D02*
X010904Y008706D01*
X010904Y008787D02*
X010040Y008787D01*
X012087Y008859D02*
X012087Y008625D01*
X012087Y008859D02*
X012951Y008859D01*
X012951Y008625D01*
X012087Y008625D01*
X012087Y008706D02*
X012951Y008706D01*
X012951Y008787D02*
X012087Y008787D01*
X012087Y009125D02*
X012087Y009359D01*
X012951Y009359D01*
X012951Y009125D01*
X012087Y009125D01*
X012087Y009206D02*
X012951Y009206D01*
X012951Y009287D02*
X012087Y009287D01*
X012087Y009625D02*
X012087Y009859D01*
X012951Y009859D01*
X012951Y009625D01*
X012087Y009625D01*
X012087Y009706D02*
X012951Y009706D01*
X012951Y009787D02*
X012087Y009787D01*
X012087Y010125D02*
X012087Y010359D01*
X012951Y010359D01*
X012951Y010125D01*
X012087Y010125D01*
X012087Y010206D02*
X012951Y010206D01*
X012951Y010287D02*
X012087Y010287D01*
D27*
X002708Y010242D03*
X002708Y011242D03*
D28*
X003726Y002992D02*
X004266Y002992D01*
X004266Y003992D02*
X003726Y003992D01*
X003726Y004992D02*
X004266Y004992D01*
X015996Y004262D02*
X015996Y003722D01*
X016996Y003722D02*
X016996Y004262D01*
X017996Y004262D02*
X017996Y003722D01*
D29*
X009786Y002192D03*
X006136Y002192D03*
X006406Y006412D03*
X007996Y006412D03*
X009536Y006412D03*
D30*
X021643Y014369D02*
X021643Y014995D01*
X022349Y014995D01*
X022349Y014369D01*
X021643Y014369D01*
X021643Y014453D02*
X022349Y014453D01*
X022349Y014537D02*
X021643Y014537D01*
X021643Y014621D02*
X022349Y014621D01*
X022349Y014705D02*
X021643Y014705D01*
X021643Y014789D02*
X022349Y014789D01*
X022349Y014873D02*
X021643Y014873D01*
X021643Y014957D02*
X022349Y014957D01*
X021643Y015488D02*
X021643Y016114D01*
X022349Y016114D01*
X022349Y015488D01*
X021643Y015488D01*
X021643Y015572D02*
X022349Y015572D01*
X022349Y015656D02*
X021643Y015656D01*
X021643Y015740D02*
X022349Y015740D01*
X022349Y015824D02*
X021643Y015824D01*
X021643Y015908D02*
X022349Y015908D01*
X022349Y015992D02*
X021643Y015992D01*
X021643Y016076D02*
X022349Y016076D01*
D31*
X021096Y016592D03*
X019896Y017542D03*
X019146Y017742D03*
X018496Y018442D03*
X017696Y017642D03*
X016946Y017642D03*
X016396Y017642D03*
X015846Y016892D03*
X016346Y016392D03*
X015846Y015792D03*
X014796Y015842D03*
X013446Y016042D03*
X013146Y018042D03*
X012446Y018242D03*
X013496Y019092D03*
X013146Y019942D03*
X015046Y019042D03*
X015396Y018692D03*
X016096Y019642D03*
X016946Y018942D03*
X017846Y020092D03*
X018496Y019742D03*
X016946Y020392D03*
X015346Y021842D03*
X016246Y022742D03*
X017146Y024142D03*
X015846Y024842D03*
X012446Y023392D03*
X012096Y024292D03*
X011196Y023892D03*
X008996Y023842D03*
X008246Y022742D03*
X006746Y022742D03*
X007996Y019492D03*
X009246Y019492D03*
X007396Y018042D03*
X006546Y018042D03*
X004246Y017742D03*
X003496Y017742D03*
X002746Y017742D03*
X002746Y016492D03*
X002746Y014992D03*
X003496Y014992D03*
X004246Y014992D03*
X006196Y012942D03*
X007496Y013492D03*
X008696Y013192D03*
X008596Y014092D03*
X007896Y012042D03*
X007546Y010692D03*
X008846Y010092D03*
X011446Y010292D03*
X012146Y011442D03*
X013746Y010192D03*
X015046Y009942D03*
X015996Y011692D03*
X016446Y012242D03*
X016946Y012542D03*
X016946Y013042D03*
X016246Y013342D03*
X015796Y013892D03*
X015446Y014242D03*
X014596Y013192D03*
X014596Y012692D03*
X014946Y012042D03*
X015646Y012742D03*
X014246Y014142D03*
X013346Y013892D03*
X017246Y014342D03*
X018046Y014342D03*
X018946Y014492D03*
X019696Y015092D03*
X019196Y015592D03*
X019746Y016042D03*
X020796Y014942D03*
X021346Y014292D03*
X022646Y014792D03*
X022996Y013742D03*
X023846Y012392D03*
X022846Y012042D03*
X022996Y011192D03*
X021346Y011542D03*
X020946Y011142D03*
X020396Y011692D03*
X020046Y012042D03*
X019146Y011942D03*
X018846Y010942D03*
X018846Y010042D03*
X020046Y011042D03*
X020596Y012842D03*
X018996Y013042D03*
X018996Y013542D03*
X017746Y011742D03*
X018596Y008892D03*
X018746Y008042D03*
X017396Y008242D03*
X017896Y006342D03*
X018146Y005892D03*
X018396Y005092D03*
X019396Y004092D03*
X019496Y003292D03*
X020496Y003242D03*
X021546Y003142D03*
X020496Y004142D03*
X021446Y005942D03*
X022696Y005942D03*
X024696Y004292D03*
X024796Y007692D03*
X022846Y009442D03*
X024796Y012792D03*
X023996Y015042D03*
X023996Y016742D03*
X026021Y015567D03*
X020346Y019792D03*
X019496Y021242D03*
X020346Y023142D03*
X018146Y016392D03*
X017296Y015942D03*
X017646Y015392D03*
X011746Y008742D03*
X007996Y004992D03*
X005596Y009742D03*
X004946Y012042D03*
X014796Y002992D03*
X015396Y002942D03*
X016596Y005242D03*
D32*
X027496Y009492D03*
X027496Y023492D03*
X003496Y025492D03*
X003496Y007492D03*
M02*
