%
M48
M72
T01C0.0236
T02C0.0315
T03C0.0320
T04C0.0354
T05C0.0360
T06C0.0400
%
T01
X3496Y7492
X5596Y9742
X7546Y10692
X7896Y12042
X8696Y13192
X8596Y14092
X7496Y13492
X6196Y12942
X4946Y12042
X4246Y14992
X3496Y14992
X2746Y14992
X2746Y16492
X2746Y17742
X3496Y17742
X4246Y17742
X6546Y18042
X7396Y18042
X7996Y19492
X9246Y19492
X12446Y18242
X13146Y18042
X13496Y19092
X13146Y19942
X15046Y19042
X15396Y18692
X16096Y19642
X16946Y18942
X16946Y17642
X16396Y17642
X15846Y16892
X16346Y16392
X15846Y15792
X14796Y15842
X13446Y16042
X14246Y14142
X13346Y13892
X14596Y13192
X14596Y12692
X14946Y12042
X15646Y12742
X16246Y13342
X15796Y13892
X15446Y14242
X16946Y13042
X16946Y12542
X16446Y12242
X15996Y11692
X17746Y11742
X18846Y10942
X18846Y10042
X20046Y11042
X20396Y11692
X20046Y12042
X19146Y11942
X18996Y13042
X18996Y13542
X18946Y14492
X19696Y15092
X19196Y15592
X19746Y16042
X20796Y14942
X21346Y14292
X22646Y14792
X22996Y13742
X23846Y12392
X22846Y12042
X22996Y11192
X21346Y11542
X20946Y11142
X20596Y12842
X18046Y14342
X17246Y14342
X17646Y15392
X17296Y15942
X18146Y16392
X17696Y17642
X18496Y18442
X19146Y17742
X19896Y17542
X21096Y16592
X23996Y16742
X23996Y15042
X26021Y15567
X24796Y12792
X22846Y9442
X24796Y7692
X22696Y5942
X21446Y5942
X20496Y4142
X20496Y3242
X21546Y3142
X19496Y3292
X19396Y4092
X18396Y5092
X18146Y5892
X17896Y6342
X16596Y5242
X14796Y2992
X15396Y2942
X18746Y8042
X18596Y8892
X17396Y8242
X15046Y9942
X13746Y10192
X12146Y11442
X11446Y10292
X11746Y8742
X8846Y10092
X7996Y4992
X18496Y19742
X17846Y20092
X16946Y20392
X15346Y21842
X16246Y22742
X17146Y24142
X15846Y24842
X12446Y23392
X12096Y24292
X11196Y23892
X8996Y23842
X8246Y22742
X6746Y22742
X3496Y25492
X19496Y21242
X20346Y19792
X20346Y23142
X27496Y23492
X27496Y9492
X24696Y4292
T02
X9536Y6412
X7996Y6412
X6406Y6412
X2708Y10242
X2708Y11242
T03
X12176Y4436
X12926Y3936
X12926Y4936
X20746Y20492
X22746Y20492
T04
X3996Y21126
X3996Y22858
T05
X3996Y2992
X3996Y3992
X3996Y4992
X15996Y3992
X16996Y3992
X17996Y3992
T06
X17996Y6992
X16996Y6992
X15996Y6992
X14996Y6992
X15216Y9352
X15216Y11132
X17776Y11132
X17776Y9352
X18996Y6992
X19996Y6992
X21996Y6992
X22996Y6992
X23996Y6992
X24996Y6992
X25996Y6992
X26996Y6992
X26886Y5022
X25106Y5022
X23886Y5022
X22106Y5022
X22106Y2462
X23886Y2462
X25106Y2462
X26886Y2462
X26996Y11992
X26996Y12992
X27996Y12992
X27996Y11992
X27996Y13992
X27996Y14992
X27996Y15992
X27996Y16992
X27996Y17992
X27996Y18992
X27996Y19992
X27996Y20992
X26996Y20992
X26996Y19992
X26996Y18992
X26996Y17992
X26996Y16992
X26996Y15992
X26996Y14992
X26996Y13992
X26996Y25992
X25996Y25992
X24996Y25992
X23996Y25992
X22996Y25992
X21996Y25992
X20996Y25992
X19996Y25992
X18496Y25992
X17496Y25992
X16496Y25992
X15496Y25992
X14496Y25992
X13496Y25992
X12496Y25992
X11496Y25992
X9786Y2192
X6136Y2192
M30
