G75*
G70*
%OFA0B0*%
%FSLAX24Y24*%
%IPPOS*%
%LPD*%
%AMOC8*
5,1,8,0,0,1.08239X$1,22.5*
%
%ADD10C,0.0820*%
%ADD11C,0.0434*%
%ADD12R,0.0680X0.0680*%
%ADD13OC8,0.0680*%
%ADD14C,0.0560*%
%ADD15C,0.0680*%
%ADD16OC8,0.0560*%
%ADD17C,0.0740*%
%ADD18C,0.0620*%
%ADD19C,0.0940*%
%ADD20C,0.0476*%
%ADD21C,0.1580*%
D10*
X014996Y006992D03*
X015996Y006992D03*
X016996Y006992D03*
X017996Y006992D03*
X018996Y006992D03*
X019996Y006992D03*
X021996Y006992D03*
X022996Y006992D03*
X023996Y006992D03*
X024996Y006992D03*
X025996Y006992D03*
X026996Y006992D03*
X026996Y025992D03*
X025996Y025992D03*
X024996Y025992D03*
X023996Y025992D03*
X022996Y025992D03*
X021996Y025992D03*
X020996Y025992D03*
X019996Y025992D03*
X018496Y025992D03*
X017496Y025992D03*
X016496Y025992D03*
X015496Y025992D03*
X014496Y025992D03*
X013496Y025992D03*
X012496Y025992D03*
X011496Y025992D03*
D11*
X003996Y022858D03*
X003996Y021126D03*
D12*
X026996Y020992D03*
D13*
X027996Y020992D03*
X027996Y019992D03*
X027996Y018992D03*
X027996Y017992D03*
X027996Y016992D03*
X027996Y015992D03*
X027996Y014992D03*
X027996Y013992D03*
X027996Y012992D03*
X027996Y011992D03*
X026996Y011992D03*
X026996Y012992D03*
X026996Y013992D03*
X026996Y014992D03*
X026996Y015992D03*
X026996Y016992D03*
X026996Y017992D03*
X026996Y018992D03*
X026996Y019992D03*
D14*
X022746Y020492D03*
X020746Y020492D03*
D15*
X018076Y011132D02*
X017476Y011132D01*
X017476Y009352D02*
X018076Y009352D01*
X015516Y009352D02*
X014916Y009352D01*
X014916Y011132D02*
X015516Y011132D01*
X022106Y005322D02*
X022106Y004722D01*
X023886Y004722D02*
X023886Y005322D01*
X025106Y005322D02*
X025106Y004722D01*
X026886Y004722D02*
X026886Y005322D01*
X026886Y002762D02*
X026886Y002162D01*
X025106Y002162D02*
X025106Y002762D01*
X023886Y002762D02*
X023886Y002162D01*
X022106Y002162D02*
X022106Y002762D01*
D16*
X012926Y003936D03*
X012176Y004436D03*
X012926Y004936D03*
D17*
X002708Y010242D03*
X002708Y011242D03*
D18*
X003726Y002992D02*
X004266Y002992D01*
X004266Y003992D02*
X003726Y003992D01*
X003726Y004992D02*
X004266Y004992D01*
X015996Y004262D02*
X015996Y003722D01*
X016996Y003722D02*
X016996Y004262D01*
X017996Y004262D02*
X017996Y003722D01*
D19*
X009786Y002192D03*
X006136Y002192D03*
X006406Y006412D03*
X007996Y006412D03*
X009536Y006412D03*
D20*
X007996Y004992D03*
X011746Y008742D03*
X011446Y010292D03*
X012146Y011442D03*
X013746Y010192D03*
X015046Y009942D03*
X015996Y011692D03*
X016446Y012242D03*
X016946Y012542D03*
X016946Y013042D03*
X016246Y013342D03*
X015796Y013892D03*
X015446Y014242D03*
X014596Y013192D03*
X014596Y012692D03*
X014946Y012042D03*
X015646Y012742D03*
X014246Y014142D03*
X013346Y013892D03*
X014796Y015842D03*
X015846Y015792D03*
X016346Y016392D03*
X015846Y016892D03*
X016396Y017642D03*
X016946Y017642D03*
X017696Y017642D03*
X018496Y018442D03*
X019146Y017742D03*
X019896Y017542D03*
X021096Y016592D03*
X019746Y016042D03*
X019196Y015592D03*
X019696Y015092D03*
X018946Y014492D03*
X018046Y014342D03*
X017246Y014342D03*
X017646Y015392D03*
X017296Y015942D03*
X018146Y016392D03*
X016946Y018942D03*
X016096Y019642D03*
X016946Y020392D03*
X017846Y020092D03*
X018496Y019742D03*
X019496Y021242D03*
X020346Y019792D03*
X020346Y023142D03*
X017146Y024142D03*
X015846Y024842D03*
X016246Y022742D03*
X015346Y021842D03*
X013146Y019942D03*
X013496Y019092D03*
X013146Y018042D03*
X012446Y018242D03*
X013446Y016042D03*
X015396Y018692D03*
X015046Y019042D03*
X012446Y023392D03*
X012096Y024292D03*
X011196Y023892D03*
X008996Y023842D03*
X008246Y022742D03*
X006746Y022742D03*
X007996Y019492D03*
X009246Y019492D03*
X007396Y018042D03*
X006546Y018042D03*
X004246Y017742D03*
X003496Y017742D03*
X002746Y017742D03*
X002746Y016492D03*
X002746Y014992D03*
X003496Y014992D03*
X004246Y014992D03*
X006196Y012942D03*
X007496Y013492D03*
X008696Y013192D03*
X008596Y014092D03*
X007896Y012042D03*
X007546Y010692D03*
X008846Y010092D03*
X005596Y009742D03*
X004946Y012042D03*
X014796Y002992D03*
X015396Y002942D03*
X016596Y005242D03*
X017896Y006342D03*
X018146Y005892D03*
X018396Y005092D03*
X019396Y004092D03*
X019496Y003292D03*
X020496Y003242D03*
X021546Y003142D03*
X020496Y004142D03*
X021446Y005942D03*
X022696Y005942D03*
X024696Y004292D03*
X024796Y007692D03*
X022846Y009442D03*
X022996Y011192D03*
X022846Y012042D03*
X023846Y012392D03*
X024796Y012792D03*
X022996Y013742D03*
X022646Y014792D03*
X021346Y014292D03*
X020796Y014942D03*
X018996Y013542D03*
X018996Y013042D03*
X019146Y011942D03*
X020046Y012042D03*
X020396Y011692D03*
X020946Y011142D03*
X021346Y011542D03*
X020046Y011042D03*
X018846Y010942D03*
X018846Y010042D03*
X018596Y008892D03*
X018746Y008042D03*
X017396Y008242D03*
X017746Y011742D03*
X020596Y012842D03*
X023996Y015042D03*
X023996Y016742D03*
X026021Y015567D03*
D21*
X027496Y009492D03*
X027496Y023492D03*
X003496Y025492D03*
X003496Y007492D03*
M02*
