G75*
G70*
%OFA0B0*%
%FSLAX24Y24*%
%IPPOS*%
%LPD*%
%AMOC8*
5,1,8,0,0,1.08239X$1,22.5*
%
%ADD10R,0.2000X0.3500*%
%ADD11C,0.0740*%
%ADD12R,0.0600X0.0600*%
%ADD13OC8,0.0600*%
%ADD14C,0.0480*%
%ADD15C,0.0600*%
%ADD16OC8,0.0480*%
%ADD17C,0.0660*%
%ADD18C,0.0540*%
%ADD19C,0.0860*%
%ADD20C,0.0100*%
%ADD21C,0.0396*%
%ADD22C,0.0200*%
%ADD23C,0.0120*%
%ADD24C,0.1500*%
D10*
X003496Y016242D03*
D11*
X011496Y025992D03*
X012496Y025992D03*
X013496Y025992D03*
X014496Y025992D03*
X015496Y025992D03*
X016496Y025992D03*
X017496Y025992D03*
X018496Y025992D03*
X019996Y025992D03*
X020996Y025992D03*
X021996Y025992D03*
X022996Y025992D03*
X023996Y025992D03*
X024996Y025992D03*
X025996Y025992D03*
X026996Y025992D03*
X026996Y006992D03*
X025996Y006992D03*
X024996Y006992D03*
X023996Y006992D03*
X022996Y006992D03*
X021996Y006992D03*
X019996Y006992D03*
X018996Y006992D03*
X017996Y006992D03*
X016996Y006992D03*
X015996Y006992D03*
X014996Y006992D03*
D12*
X026996Y020992D03*
D13*
X027996Y020992D03*
X027996Y019992D03*
X027996Y018992D03*
X027996Y017992D03*
X027996Y016992D03*
X027996Y015992D03*
X027996Y014992D03*
X027996Y013992D03*
X027996Y012992D03*
X027996Y011992D03*
X026996Y011992D03*
X026996Y012992D03*
X026996Y013992D03*
X026996Y014992D03*
X026996Y015992D03*
X026996Y016992D03*
X026996Y017992D03*
X026996Y018992D03*
X026996Y019992D03*
D14*
X022746Y020492D03*
X020746Y020492D03*
D15*
X018076Y011132D02*
X017476Y011132D01*
X017476Y009352D02*
X018076Y009352D01*
X015516Y009352D02*
X014916Y009352D01*
X014916Y011132D02*
X015516Y011132D01*
X022106Y005322D02*
X022106Y004722D01*
X023886Y004722D02*
X023886Y005322D01*
X025106Y005322D02*
X025106Y004722D01*
X026886Y004722D02*
X026886Y005322D01*
X026886Y002762D02*
X026886Y002162D01*
X025106Y002162D02*
X025106Y002762D01*
X023886Y002762D02*
X023886Y002162D01*
X022106Y002162D02*
X022106Y002762D01*
D16*
X012926Y003936D03*
X012176Y004436D03*
X012926Y004936D03*
D17*
X002708Y010242D03*
X002708Y011242D03*
D18*
X003726Y002992D02*
X004266Y002992D01*
X004266Y003992D02*
X003726Y003992D01*
X003726Y004992D02*
X004266Y004992D01*
X015996Y004262D02*
X015996Y003722D01*
X016996Y003722D02*
X016996Y004262D01*
X017996Y004262D02*
X017996Y003722D01*
D19*
X009786Y002192D03*
X006136Y002192D03*
X006406Y006412D03*
X007996Y006412D03*
X009536Y006412D03*
D20*
X008496Y004992D02*
X007996Y004992D01*
X008496Y004992D02*
X009096Y004392D01*
X012146Y004392D01*
X012176Y004436D01*
X011496Y002492D02*
X020246Y002492D01*
X020896Y003142D01*
X021546Y003142D01*
X020496Y003242D02*
X020196Y002942D01*
X015396Y002942D01*
X015246Y003292D02*
X014946Y002992D01*
X014796Y002992D01*
X015246Y003292D02*
X019496Y003292D01*
X019396Y004092D02*
X018396Y005092D01*
X018146Y005892D02*
X017246Y005892D01*
X016596Y005242D01*
X017896Y006342D02*
X018296Y006342D01*
X020496Y004142D01*
X021896Y004292D02*
X024696Y004292D01*
X025096Y004992D02*
X025106Y005022D01*
X025096Y004992D02*
X025096Y002592D01*
X025106Y002462D01*
X025096Y002542D01*
X023546Y005592D02*
X022546Y005592D01*
X022346Y005792D01*
X022346Y006092D01*
X022496Y006242D01*
X022496Y007242D01*
X021696Y008042D01*
X021696Y008592D01*
X017246Y013042D01*
X016946Y013042D01*
X016946Y012542D02*
X016246Y013242D01*
X016246Y013342D01*
X015796Y013092D02*
X016446Y012442D01*
X016446Y012242D01*
X015996Y011792D02*
X015996Y011692D01*
X015996Y011792D02*
X014596Y013192D01*
X014596Y012692D02*
X014796Y012692D01*
X015296Y012192D01*
X015296Y011192D01*
X015246Y011142D01*
X015216Y011132D01*
X014946Y011792D02*
X014446Y011292D01*
X014446Y010992D01*
X015146Y010292D01*
X015896Y010292D01*
X017296Y008892D01*
X018596Y008892D01*
X018446Y008242D02*
X017396Y008242D01*
X017696Y008042D02*
X017546Y007892D01*
X015746Y007892D01*
X014096Y009542D01*
X014096Y010592D01*
X013896Y010792D01*
X013896Y013292D01*
X016396Y015792D01*
X015846Y015792D01*
X016396Y015792D02*
X016596Y015792D01*
X018046Y014342D01*
X017246Y014342D02*
X017246Y013842D01*
X019146Y011942D01*
X019696Y011892D02*
X020396Y011192D01*
X020396Y010792D01*
X023696Y007492D01*
X024496Y007492D01*
X024996Y006992D01*
X025246Y006492D02*
X025496Y006742D01*
X025496Y007492D01*
X024946Y008042D01*
X023746Y008042D01*
X021346Y010442D01*
X021346Y011542D01*
X020946Y011142D02*
X020946Y014292D01*
X020446Y014792D01*
X020446Y016592D01*
X019896Y017142D01*
X019896Y017542D01*
X019146Y017742D02*
X019146Y017142D01*
X020246Y016042D01*
X020246Y012342D01*
X020396Y012192D01*
X020396Y011692D01*
X020596Y011992D02*
X020746Y011842D01*
X020746Y011442D01*
X020596Y011292D01*
X020596Y010892D01*
X023796Y007692D01*
X024796Y007692D01*
X023996Y006992D02*
X024496Y006492D01*
X025246Y006492D01*
X026046Y006292D02*
X024246Y006292D01*
X023546Y005592D01*
X022696Y005942D02*
X023496Y006742D01*
X023496Y007392D01*
X020046Y010842D01*
X020046Y011042D01*
X019496Y011092D02*
X021896Y008692D01*
X021896Y008342D01*
X022996Y007242D01*
X022996Y006992D01*
X021496Y005992D02*
X021446Y005942D01*
X021496Y005992D02*
X021496Y008492D01*
X019046Y010942D01*
X018846Y010942D01*
X018996Y010392D02*
X019396Y009992D01*
X019396Y009192D01*
X018446Y008242D01*
X018746Y008042D02*
X017696Y008042D01*
X019246Y007492D02*
X019496Y007242D01*
X019496Y006692D01*
X021896Y004292D01*
X021846Y005042D02*
X022096Y005042D01*
X022106Y005022D01*
X021846Y005042D02*
X021096Y005792D01*
X021096Y006642D01*
X020046Y007692D01*
X015646Y007692D01*
X013346Y009992D01*
X013346Y013892D01*
X013696Y014742D02*
X014796Y015842D01*
X015846Y016892D01*
X016196Y016742D02*
X014246Y014792D01*
X014246Y014142D01*
X013696Y014742D02*
X013696Y010692D01*
X013746Y010642D01*
X013746Y010192D01*
X014096Y010892D02*
X015046Y009942D01*
X014096Y010892D02*
X014096Y013192D01*
X015146Y014242D01*
X015446Y014242D01*
X015796Y013892D02*
X015796Y013092D01*
X015646Y012742D02*
X015646Y012542D01*
X016846Y011342D01*
X016846Y010842D01*
X017646Y010042D01*
X018846Y010042D01*
X018996Y010392D02*
X017596Y010392D01*
X017046Y010942D01*
X017046Y011342D01*
X017446Y011742D01*
X017746Y011742D01*
X018996Y013042D02*
X018596Y013442D01*
X018596Y015092D01*
X018446Y015242D01*
X018446Y015592D01*
X017846Y016192D01*
X017546Y016192D01*
X017296Y015942D01*
X017346Y015392D02*
X016346Y016392D01*
X016196Y016742D02*
X018846Y016742D01*
X019546Y016042D01*
X019746Y016042D01*
X019196Y015592D02*
X019196Y015092D01*
X019496Y014792D01*
X019496Y011092D01*
X019696Y011892D02*
X019696Y015092D01*
X020046Y015242D02*
X020046Y012042D01*
X020596Y011992D02*
X020596Y012842D01*
X021396Y014242D02*
X021346Y014292D01*
X021396Y014242D02*
X022871Y014242D01*
X023371Y014742D01*
X023371Y015367D01*
X025996Y017992D01*
X026996Y017992D01*
X026996Y016992D02*
X025496Y016992D01*
X024496Y015992D01*
X024496Y014367D01*
X024121Y013992D01*
X023871Y013992D01*
X022846Y012967D01*
X022846Y012042D01*
X023371Y011567D02*
X022996Y011192D01*
X023371Y011567D02*
X023371Y012867D01*
X023621Y013117D01*
X024121Y013117D01*
X025996Y014992D01*
X025996Y015542D01*
X026021Y015567D01*
X026996Y014992D02*
X024796Y012792D01*
X024896Y012392D02*
X023846Y012392D01*
X024896Y012392D02*
X026496Y013992D01*
X026996Y013992D01*
X027446Y013792D02*
X027096Y013442D01*
X026796Y013442D01*
X022846Y009492D01*
X022846Y009442D01*
X026046Y006292D02*
X026496Y006742D01*
X026496Y010842D01*
X027546Y011892D01*
X027546Y013192D01*
X027896Y013542D01*
X028421Y013542D01*
X028621Y013742D01*
X028621Y021367D01*
X027996Y021992D01*
X027371Y021992D01*
X024996Y024367D01*
X024996Y025992D01*
X024496Y026242D02*
X024121Y026617D01*
X019871Y026617D01*
X019496Y026242D01*
X019496Y021242D01*
X019996Y019642D02*
X019996Y025992D01*
X020996Y025992D02*
X020996Y024992D01*
X021496Y024492D01*
X021496Y019492D01*
X022646Y018342D01*
X022646Y014792D01*
X022996Y013742D02*
X023796Y014542D01*
X023996Y015042D01*
X023996Y016742D02*
X023996Y025992D01*
X024496Y026242D02*
X024496Y024292D01*
X027446Y021342D01*
X027446Y013792D01*
X021446Y016442D02*
X021446Y018192D01*
X019996Y019642D01*
X020346Y019792D02*
X020346Y023142D01*
X017996Y025742D02*
X017996Y026242D01*
X017621Y026617D01*
X011121Y026617D01*
X010871Y026367D01*
X010871Y024117D01*
X010996Y023992D01*
X010996Y023892D01*
X011196Y023892D01*
X010996Y023892D02*
X009046Y023892D01*
X008996Y023842D01*
X012446Y023392D02*
X012446Y018242D01*
X013146Y018042D02*
X013146Y019942D01*
X012996Y020292D02*
X013296Y020292D01*
X014546Y019042D01*
X015046Y019042D01*
X015396Y018692D02*
X013796Y018692D01*
X013496Y018992D01*
X013496Y019092D01*
X012796Y020092D02*
X012796Y010242D01*
X015546Y007492D01*
X019246Y007492D01*
X014946Y011792D02*
X014946Y012042D01*
X011446Y010292D02*
X011746Y008742D01*
X008846Y010092D02*
X007396Y012042D01*
X007896Y012042D01*
X007396Y012042D02*
X004946Y012042D01*
X003196Y010692D02*
X002746Y010242D01*
X002708Y010242D01*
X003196Y010692D02*
X007546Y010692D01*
X008696Y013192D02*
X008696Y013992D01*
X008596Y014092D01*
X012796Y020092D02*
X012996Y020292D01*
X016246Y022742D02*
X016246Y023242D01*
X013496Y025992D01*
X015496Y025992D02*
X015496Y024692D01*
X016596Y023592D01*
X016596Y018892D01*
X016396Y018692D01*
X016396Y017642D01*
X016946Y017642D02*
X016946Y018442D01*
X017496Y018992D01*
X017496Y025242D01*
X017996Y025742D01*
X017496Y025992D02*
X017146Y025642D01*
X017146Y024142D01*
X016946Y023542D02*
X015846Y024642D01*
X015846Y024842D01*
X016496Y024292D02*
X016496Y025992D01*
X016496Y024292D02*
X017296Y023492D01*
X017296Y020242D01*
X016946Y019892D01*
X016946Y018942D01*
X017696Y017642D02*
X018496Y018442D01*
X018496Y019742D02*
X018496Y025992D01*
X016946Y023542D02*
X016946Y020392D01*
X018146Y016392D02*
X018896Y016392D01*
X020046Y015242D01*
X020796Y014942D02*
X020796Y015792D01*
X021446Y016442D01*
X018946Y014492D02*
X018946Y013592D01*
X018996Y013542D01*
X017646Y015392D02*
X017346Y015392D01*
X009996Y003992D02*
X011496Y002492D01*
X009996Y003992D02*
X003996Y003992D01*
D21*
X007996Y004992D03*
X011746Y008742D03*
X011446Y010292D03*
X012146Y011442D03*
X013746Y010192D03*
X015046Y009942D03*
X015996Y011692D03*
X016446Y012242D03*
X016946Y012542D03*
X016946Y013042D03*
X016246Y013342D03*
X015796Y013892D03*
X015446Y014242D03*
X014596Y013192D03*
X014596Y012692D03*
X014946Y012042D03*
X015646Y012742D03*
X014246Y014142D03*
X013346Y013892D03*
X014796Y015842D03*
X015846Y015792D03*
X016346Y016392D03*
X015846Y016892D03*
X016396Y017642D03*
X016946Y017642D03*
X017696Y017642D03*
X018496Y018442D03*
X019146Y017742D03*
X019896Y017542D03*
X021096Y016592D03*
X019746Y016042D03*
X019196Y015592D03*
X019696Y015092D03*
X018946Y014492D03*
X018046Y014342D03*
X017246Y014342D03*
X017646Y015392D03*
X017296Y015942D03*
X018146Y016392D03*
X016946Y018942D03*
X016096Y019642D03*
X016946Y020392D03*
X017846Y020092D03*
X018496Y019742D03*
X019496Y021242D03*
X020346Y019792D03*
X020346Y023142D03*
X017146Y024142D03*
X015846Y024842D03*
X016246Y022742D03*
X015346Y021842D03*
X013146Y019942D03*
X013496Y019092D03*
X013146Y018042D03*
X012446Y018242D03*
X013446Y016042D03*
X015396Y018692D03*
X015046Y019042D03*
X012446Y023392D03*
X012096Y024292D03*
X011196Y023892D03*
X008996Y023842D03*
X008246Y022742D03*
X006746Y022742D03*
X007996Y019492D03*
X009246Y019492D03*
X007396Y018042D03*
X006546Y018042D03*
X004246Y017742D03*
X003496Y017742D03*
X002746Y017742D03*
X002746Y016492D03*
X002746Y014992D03*
X003496Y014992D03*
X004246Y014992D03*
X006196Y012942D03*
X007496Y013492D03*
X008696Y013192D03*
X008596Y014092D03*
X007896Y012042D03*
X007546Y010692D03*
X008846Y010092D03*
X005596Y009742D03*
X004946Y012042D03*
X014796Y002992D03*
X015396Y002942D03*
X016596Y005242D03*
X017896Y006342D03*
X018146Y005892D03*
X018396Y005092D03*
X019396Y004092D03*
X019496Y003292D03*
X020496Y003242D03*
X021546Y003142D03*
X020496Y004142D03*
X021446Y005942D03*
X022696Y005942D03*
X024696Y004292D03*
X024796Y007692D03*
X022846Y009442D03*
X022996Y011192D03*
X022846Y012042D03*
X023846Y012392D03*
X024796Y012792D03*
X022996Y013742D03*
X022646Y014792D03*
X021346Y014292D03*
X020796Y014942D03*
X018996Y013542D03*
X018996Y013042D03*
X019146Y011942D03*
X020046Y012042D03*
X020396Y011692D03*
X020946Y011142D03*
X021346Y011542D03*
X020046Y011042D03*
X018846Y010942D03*
X018846Y010042D03*
X018596Y008892D03*
X018746Y008042D03*
X017396Y008242D03*
X017746Y011742D03*
X020596Y012842D03*
X023996Y015042D03*
X023996Y016742D03*
X026021Y015567D03*
D22*
X027996Y011992D02*
X028621Y011367D01*
X028621Y006617D01*
X028496Y006492D01*
X027996Y006492D01*
X026946Y005442D01*
X026946Y005092D01*
X026886Y005022D01*
X026896Y004992D01*
X026896Y002592D01*
X026886Y002462D01*
X026896Y002492D01*
X023886Y002462D02*
X023846Y002492D01*
X023096Y002492D01*
X022046Y003542D01*
X021346Y003542D01*
X020896Y003992D01*
X020896Y004792D01*
X018996Y006692D01*
X018996Y006992D01*
X017996Y006992D02*
X017796Y006992D01*
X014746Y003942D01*
X012946Y003942D01*
X012926Y003936D01*
X012926Y004936D02*
X012996Y004992D01*
X014796Y004992D01*
X016796Y006992D01*
X016996Y006992D01*
X015996Y006992D02*
X015796Y006992D01*
X015246Y006442D01*
X009646Y006442D01*
X009536Y006412D01*
X009546Y006542D01*
X009546Y010942D01*
X007546Y012942D01*
X007496Y012942D01*
X007496Y013492D01*
X007496Y012942D02*
X006196Y012942D01*
X005596Y009742D02*
X008896Y006442D01*
X008896Y006142D01*
X010096Y004942D01*
X012896Y004942D01*
X012926Y004936D01*
X009536Y006412D02*
X009546Y006442D01*
X012146Y011442D02*
X007446Y016142D01*
X007446Y017992D01*
X007396Y018042D01*
X006546Y018042D01*
X012096Y024292D02*
X016046Y020342D01*
X016046Y019692D01*
X016096Y019642D01*
X016096Y018692D01*
X015446Y018042D01*
X016246Y017242D01*
X017846Y017242D01*
X018746Y018142D01*
X019296Y018142D01*
X019296Y018192D01*
X017846Y019642D01*
X017846Y020092D01*
X019296Y018142D02*
X019846Y018142D01*
X021096Y016892D01*
X021096Y016592D01*
X015446Y018042D02*
X013446Y016042D01*
X015346Y021842D02*
X015346Y023142D01*
X012496Y025992D01*
D23*
X008246Y022742D02*
X006746Y022742D01*
X007996Y019492D02*
X009246Y019492D01*
D24*
X003496Y025492D03*
X003496Y007492D03*
X027496Y009492D03*
X027496Y023492D03*
M02*
